<svg width="31" height="31" viewBox="0 0 31 31" fill="none" xmlns="http://www.w3.org/2000/svg">
<path d="M15.3837 0H15.5993C16.1993 0.0448047 16.7303 0.545527 16.7806 1.14918C16.8066 1.5391 16.7842 1.93084 16.7921 2.32137C18.8379 2.5248 20.8354 3.20656 22.5695 4.31215C24.2224 5.359 25.6398 6.77641 26.6866 8.42934C27.7916 10.164 28.4734 12.1614 28.6774 14.2067C29.0891 14.2194 29.5027 14.1855 29.9126 14.2267C30.4878 14.3042 30.9461 14.8152 31 15.3868V15.5781C30.9667 16.186 30.4611 16.7291 29.8508 16.7806C29.4603 16.8066 29.0686 16.7842 28.678 16.7921C28.4522 19.0547 27.639 21.2568 26.3228 23.1132C25.0664 24.8975 23.3644 26.367 21.4112 27.3424C19.9714 28.0695 18.3954 28.5146 16.7921 28.678C16.7818 29.0885 16.8139 29.5009 16.7733 29.9102C16.6952 30.4932 16.1696 30.9619 15.586 31H15.4213C14.8146 30.9667 14.2703 30.4617 14.2188 29.852C14.1934 29.4615 14.2158 29.0692 14.2079 28.678C12.5901 28.5103 10.9989 28.0586 9.54824 27.32C7.85717 26.4681 6.35379 25.2462 5.1707 23.7677C3.56863 21.7848 2.57143 19.3278 2.32137 16.7921C1.87393 16.7745 1.42104 16.832 0.978437 16.7521C0.449863 16.6286 0.0448047 16.1418 0 15.6035V15.4001C0.0429883 14.86 0.448047 14.3708 0.977832 14.2473C1.42104 14.168 1.87453 14.2261 2.32197 14.2073C2.40795 13.4099 2.55023 12.618 2.77486 11.8478C3.48205 9.36963 4.94184 7.11728 6.90053 5.44438C8.94035 3.6867 11.5287 2.58596 14.2079 2.32137C14.2158 1.93145 14.1934 1.54031 14.2188 1.151C14.2673 0.551582 14.7904 0.0550977 15.3837 0ZM8.09209 7.85051C6.35137 9.52523 5.20643 11.8079 4.92367 14.2085C5.32994 14.2243 5.74287 14.168 6.14309 14.2515C6.69588 14.3896 7.11305 14.9284 7.10336 15.4988C7.11305 16.0546 6.71828 16.582 6.18547 16.7358C5.77375 16.8405 5.34326 16.7727 4.92367 16.7915C5.24336 19.5245 6.68922 22.096 8.83924 23.8082C10.3723 25.0422 12.2523 25.8438 14.2079 26.0733C14.234 25.6198 14.1383 25.1457 14.3 24.7098C14.4925 24.2097 15.0205 23.8646 15.5569 23.8979C16.074 23.913 16.5559 24.2738 16.7194 24.7637C16.8508 25.1881 16.7685 25.641 16.7921 26.0781C18.9052 25.8232 20.9304 24.9126 22.5253 23.5031C24.4761 21.7999 25.7724 19.3653 26.0757 16.7915C25.6561 16.7721 25.2262 16.8405 24.8151 16.7364C24.3023 16.588 23.9142 16.094 23.8979 15.5593C23.8658 15.0398 24.1873 14.524 24.6644 14.3193C25.1106 14.1274 25.6083 14.24 26.0775 14.2055C25.7694 11.6347 24.4791 9.20131 22.5289 7.49994C20.9341 6.0892 18.9064 5.17312 16.7915 4.92307C16.7727 5.34387 16.8405 5.77496 16.7352 6.18789C16.5808 6.71949 16.0534 7.11244 15.4982 7.10336C14.9623 7.11062 14.4495 6.74371 14.28 6.23572C14.1492 5.8125 14.2303 5.36203 14.2091 4.9273C11.9217 5.19189 9.74078 6.24602 8.09209 7.85051Z" fill="#686868"/>
<path d="M14.9253 11.6674C15.6561 11.559 16.4184 11.6607 17.0917 11.9677C18.0283 12.3921 18.7858 13.1998 19.1376 14.1674C19.447 15.0029 19.4524 15.9462 19.1539 16.786C18.8136 17.7572 18.0671 18.577 17.1347 19.0117C16.3306 19.3907 15.3939 19.4749 14.5342 19.2521C13.6151 19.0184 12.7971 18.4274 12.2734 17.6385C11.7569 16.8768 11.5389 15.9244 11.6558 15.0126C11.8435 13.3348 13.2536 11.8956 14.9253 11.6674ZM15.2123 14.2406C14.6813 14.3563 14.2557 14.8382 14.2145 15.3813C14.1636 15.8596 14.4125 16.3483 14.8218 16.5977C15.2129 16.8454 15.7385 16.8544 16.1375 16.6207C16.5165 16.4082 16.7726 15.9941 16.7889 15.5593C16.812 15.1434 16.6152 14.7256 16.2834 14.4755C15.9849 14.2418 15.581 14.1559 15.2123 14.2406Z" fill="#686868"/>
</svg>
