<svg width="51" height="50" viewBox="0 0 51 50" fill="none" xmlns="http://www.w3.org/2000/svg">
<g clip-path="url(#clip0_423_568)">
<path d="M16.1191 5.75677C16.4189 5.18256 17.043 4.81439 17.6914 4.83588C22.7363 4.82904 27.7803 4.83685 32.8242 4.83295C33.2969 4.83392 33.8018 4.80072 34.2285 5.03998C34.5635 5.21088 34.8057 5.51166 34.9844 5.8349C36.0059 7.68744 37.0312 9.53705 38.0547 11.3886C41.0635 11.3915 44.0732 11.3847 47.083 11.3915C47.9209 11.3867 48.7646 11.6796 49.3857 12.249C50.0615 12.8447 50.4512 13.7226 50.5 14.6181V41.8769C50.4697 42.8369 50.0361 43.7812 49.2871 44.3906C48.6543 44.9306 47.8145 45.1796 46.9893 45.166C32.7617 45.1679 18.5342 45.164 4.30664 45.1679C3.62207 45.1816 2.91309 45.1171 2.30176 44.7822C1.22852 44.2392 0.530273 43.0829 0.5 41.8867V14.664C0.53125 13.4892 1.20605 12.3535 2.24805 11.8007C2.81445 11.4814 3.47266 11.3808 4.11523 11.3886C7.05859 11.3896 10.0029 11.3896 12.9463 11.3876C14.0039 9.51068 15.0586 7.63275 16.1191 5.75677ZM24.1562 14.1904C22.6924 14.3593 21.2539 14.7734 19.9414 15.4453C17.6162 16.6093 15.6904 18.541 14.5127 20.8564C13.1914 23.4326 12.835 26.4843 13.5107 29.2978C14.084 31.7597 15.4531 34.0263 17.3545 35.6913C20.0156 38.0644 23.75 39.1855 27.2764 38.6288C30.5205 38.1718 33.5332 36.331 35.4482 33.6777C37.1318 31.3945 37.9814 28.5097 37.7969 25.6786C37.623 22.4833 36.1182 19.3896 33.7236 17.2704C31.168 14.9374 27.5898 13.8085 24.1562 14.1904Z" fill="white"/>
<path d="M24.7431 20.329C26.0419 20.1718 27.3945 20.4247 28.5312 21.08C29.705 21.7382 30.6493 22.7958 31.1738 24.0361C31.8505 25.6142 31.8222 27.4785 31.0927 29.0341C30.5038 30.3115 29.4618 31.3749 28.1943 31.9872C26.8847 32.6298 25.3437 32.7792 23.9345 32.4052C22.6161 32.0634 21.4247 31.2665 20.6015 30.1826C19.707 29.0224 19.2548 27.5351 19.3495 26.0732C19.4325 24.496 20.165 22.9706 21.33 21.9062C22.2685 21.0439 23.4765 20.4775 24.7431 20.329Z" fill="white"/>
</g>
<defs>
<clipPath id="clip0_423_568">
<rect width="50" height="50" fill="white" transform="translate(0.5)"/>
</clipPath>
</defs>
</svg>
