<svg width="28" height="28" viewBox="0 0 28 28" fill="none" xmlns="http://www.w3.org/2000/svg">
<path d="M9.13407 0H21.5913C22.3936 0.048125 23.1849 0.304062 23.8472 0.762344C24.7769 1.39344 25.4468 2.39477 25.6683 3.49727C25.7443 3.85711 25.7634 4.22625 25.758 4.5932C25.758 10.0073 25.758 15.4219 25.7585 20.8359C25.7662 21.1017 25.6841 21.3708 25.5146 21.577C25.2483 21.9149 24.773 22.0659 24.3607 21.9406C23.9041 21.8159 23.5634 21.367 23.571 20.8923C23.5688 15.3869 23.5721 9.88148 23.5694 4.37555C23.571 3.77617 23.3129 3.18336 22.8727 2.77648C22.4751 2.40133 21.9326 2.18805 21.3857 2.18859C17.3372 2.18586 13.2887 2.18914 9.24016 2.18695C8.82125 2.19133 8.41711 1.92938 8.24758 1.54711C8.06383 1.15609 8.14313 0.660078 8.44282 0.348359C8.62055 0.150937 8.87375 0.0377344 9.13407 0Z" fill="#D52A33"/>
<path d="M3.66742 5.52784C4.45601 4.8251 5.50656 4.42533 6.56367 4.42971C10.0642 4.43026 13.5653 4.42862 17.0659 4.4308C18.2717 4.43901 19.4579 4.98041 20.2591 5.88057C20.9776 6.67244 21.3862 7.73612 21.3823 8.80581C21.3834 13.7463 21.3834 18.6867 21.3823 23.6272C21.3883 24.8642 20.8333 26.086 19.9036 26.9003C19.1604 27.5658 18.1837 27.9519 17.1889 28H6.38703C5.33976 27.953 4.31382 27.5248 3.55586 26.7985C2.85421 26.1385 2.38062 25.2405 2.23843 24.2873C2.17226 23.887 2.18976 23.4801 2.18757 23.076C2.18812 18.3012 2.18593 13.5264 2.18867 8.75166C2.19414 7.53104 2.74976 6.33119 3.66742 5.52784ZM6.15406 6.65659C5.16804 6.8283 4.38218 7.74979 4.37726 8.75221C4.37179 13.6364 4.37671 18.5205 4.37507 23.4046C4.36195 23.7847 4.4057 24.173 4.56867 24.5203C4.90664 25.2925 5.72148 25.8202 6.56476 25.8114C10.0467 25.8131 13.5281 25.8131 17.0101 25.8114C17.686 25.8142 18.3516 25.4806 18.7541 24.9375C19.051 24.5487 19.2036 24.0576 19.1954 23.5692C19.1948 18.6474 19.1965 13.7255 19.1943 8.80362C19.2063 7.87284 18.5539 6.9858 17.6625 6.71893C17.2934 6.59424 16.8996 6.6183 16.5162 6.61721C13.2164 6.61721 9.91601 6.61721 6.61617 6.61721C6.4614 6.6183 6.30609 6.6276 6.15406 6.65659Z" fill="#D52A33"/>
</svg>
