<svg width="24" height="28" viewBox="0 0 24 28" fill="none" xmlns="http://www.w3.org/2000/svg">
<path d="M7.13394 0H19.5912C20.3935 0.048125 21.1848 0.304062 21.8471 0.762344C22.7767 1.39344 23.4467 2.39477 23.6682 3.49727C23.7442 3.85711 23.7633 4.22625 23.7578 4.5932C23.7578 10.0073 23.7578 15.4219 23.7584 20.8359C23.766 21.1017 23.684 21.3708 23.5145 21.577C23.2482 21.9149 22.7729 22.0659 22.3606 21.9406C21.9039 21.8159 21.5632 21.367 21.5709 20.8923C21.5687 15.3869 21.572 9.88148 21.5692 4.37555C21.5709 3.77617 21.3128 3.18336 20.8725 2.77648C20.475 2.40133 19.9325 2.18805 19.3856 2.18859C15.3371 2.18586 11.2886 2.18914 7.24004 2.18695C6.82113 2.19133 6.41699 1.92938 6.24746 1.54711C6.06371 1.15609 6.14301 0.660078 6.44269 0.348359C6.62043 0.150937 6.87363 0.0377344 7.13394 0Z" fill="white"/>
<path d="M1.66736 5.5278C2.45595 4.82507 3.5065 4.4253 4.56361 4.42968C8.06415 4.43023 11.5652 4.42859 15.0658 4.43077C16.2716 4.43898 17.4578 4.98038 18.259 5.88054C18.9776 6.67241 19.3861 7.73609 19.3823 8.80577C19.3834 13.7462 19.3834 18.6867 19.3823 23.6272C19.3883 24.8642 18.8332 26.0859 17.9035 26.9002C17.1603 27.5658 16.1836 27.9519 15.1888 28H4.38697C3.3397 27.953 2.31376 27.5248 1.55579 26.7985C0.854154 26.1384 0.38056 25.2405 0.238373 24.2873C0.172201 23.887 0.189701 23.4801 0.187513 23.0759C0.18806 18.3012 0.185873 13.5264 0.188607 8.75163C0.194076 7.53101 0.749701 6.33116 1.66736 5.5278ZM4.154 6.65655C3.16798 6.82827 2.38212 7.74976 2.3772 8.75218C2.37173 13.6363 2.37665 18.5205 2.37501 23.4046C2.36189 23.7847 2.40564 24.173 2.56861 24.5202C2.90658 25.2924 3.72142 25.8202 4.5647 25.8114C8.04665 25.813 11.5281 25.813 15.01 25.8114C15.6859 25.8141 16.3515 25.4805 16.754 24.9375C17.0509 24.5487 17.2035 24.0576 17.1953 23.5692C17.1948 18.6473 17.1964 13.7255 17.1942 8.80359C17.2063 7.8728 16.5538 6.98577 15.6624 6.7189C15.2933 6.59421 14.8995 6.61827 14.5162 6.61718C11.2163 6.61718 7.91595 6.61718 4.61611 6.61718C4.46134 6.61827 4.30603 6.62757 4.154 6.65655Z" fill="white"/>
</svg>
