<svg width="28" height="28" viewBox="0 0 28 28" fill="none" xmlns="http://www.w3.org/2000/svg">
<path d="M9.13394 0H21.5912C22.3935 0.048125 23.1848 0.304062 23.8471 0.762344C24.7767 1.39344 25.4467 2.39477 25.6682 3.49727C25.7442 3.85711 25.7633 4.22625 25.7578 4.5932C25.7578 10.0073 25.7578 15.4219 25.7584 20.8359C25.766 21.1017 25.684 21.3708 25.5145 21.577C25.2482 21.9149 24.7729 22.0659 24.3606 21.9406C23.9039 21.8159 23.5632 21.367 23.5709 20.8923C23.5687 15.3869 23.572 9.88148 23.5692 4.37555C23.5709 3.77617 23.3128 3.18336 22.8725 2.77648C22.475 2.40133 21.9325 2.18805 21.3856 2.18859C17.3371 2.18586 13.2886 2.18914 9.24004 2.18695C8.82113 2.19133 8.41699 1.92938 8.24746 1.54711C8.06371 1.15609 8.14301 0.660078 8.44269 0.348359C8.62043 0.150937 8.87363 0.0377344 9.13394 0Z" fill="#D52A33"/>
<path d="M3.66736 5.5279C4.45595 4.82516 5.5065 4.4254 6.56361 4.42977C10.0642 4.43032 13.5652 4.42868 17.0658 4.43086C18.2716 4.43907 19.4578 4.98047 20.259 5.88063C20.9776 6.67251 21.3861 7.73618 21.3823 8.80587C21.3834 13.7463 21.3834 18.6868 21.3823 23.6273C21.3883 24.8643 20.8332 26.086 19.9035 26.9003C19.1603 27.5659 18.1836 27.952 17.1888 28.0001H6.38697C5.3397 27.9531 4.31376 27.5249 3.55579 26.7986C2.85415 26.1385 2.38056 25.2406 2.23837 24.2874C2.1722 23.887 2.1897 23.4802 2.18751 23.076C2.18806 18.3013 2.18587 13.5265 2.18861 8.75173C2.19408 7.5311 2.7497 6.33126 3.66736 5.5279ZM6.154 6.65665C5.16798 6.82837 4.38212 7.74985 4.3772 8.75227C4.37173 13.6364 4.37665 18.5206 4.37501 23.4047C4.36189 23.7848 4.40564 24.1731 4.56861 24.5203C4.90658 25.2925 5.72142 25.8202 6.5647 25.8115C10.0467 25.8131 13.5281 25.8131 17.01 25.8115C17.6859 25.8142 18.3515 25.4806 18.754 24.9376C19.0509 24.5488 19.2035 24.0577 19.1953 23.5693C19.1948 18.6474 19.1964 13.7256 19.1942 8.80368C19.2063 7.8729 18.5538 6.98587 17.6624 6.71899C17.2933 6.5943 16.8995 6.61837 16.5162 6.61727C13.2163 6.61727 9.91595 6.61727 6.61611 6.61727C6.46134 6.61837 6.30603 6.62766 6.154 6.65665Z" fill="#D52A33"/>
</svg>
