<svg width="24" height="22" viewBox="0 0 24 22" fill="none" xmlns="http://www.w3.org/2000/svg">
<path d="M9.50112 2.23435C9.49268 1.5945 10.0505 1.017 10.6903 1.002C11.5627 0.997786 12.4355 0.997786 13.3078 1.002C13.9486 1.0156 14.5055 1.59357 14.4989 2.23341C14.5017 4.15529 14.4994 6.07716 14.4999 7.99904C15.4172 8.00091 16.3346 7.99763 17.2519 8.00044C17.5955 7.99154 17.9128 8.25404 17.9808 8.58873C18.0403 8.83435 17.9578 9.1006 17.7811 9.27872C16.0425 11.1026 14.3016 12.9242 12.5621 14.7472C12.2635 15.1015 11.6658 15.0678 11.3925 14.6994C9.6994 12.9242 8.00581 11.15 6.31128 9.37576C6.1505 9.22341 6.00706 9.02935 6.0019 8.79826C5.96909 8.40263 6.29675 8.01451 6.698 8.00326C7.63175 7.99435 8.56596 8.00279 9.50018 7.99904C9.50065 6.07763 9.49878 4.15576 9.50112 2.23435Z" fill="white"/>
<path d="M0.404063 17.6332C0.736406 17.2282 1.25672 16.9897 1.78078 16.9995C8.59359 16.9995 15.4064 16.999 22.2197 17C22.7325 16.9901 23.2439 17.2175 23.5758 17.6098C23.8209 17.8892 23.9587 18.2487 24 18.6158V19.3587C23.9648 19.7858 23.7811 20.2011 23.4713 20.5001C23.1427 20.8254 22.6809 21.0059 22.2188 20.9993C15.5316 20.9998 8.84391 20.9993 2.15672 20.9993C1.80047 21.0022 1.42922 21.0172 1.09547 20.8704C0.485625 20.6318 0.0529687 20.0286 0 19.3779V18.6336C0.0332812 18.2698 0.167344 17.9136 0.404063 17.6332Z" fill="white"/>
</svg>
