<svg width="38" height="38" viewBox="0 0 38 38" fill="none" xmlns="http://www.w3.org/2000/svg">
<ellipse cx="18.5" cy="18.0491" rx="12.5" ry="14.5" fill="white"/>
<path d="M18.5139 0H19.4809C22.3013 0.0808984 25.1067 0.774844 27.6153 2.07145C31.5526 4.07016 34.7448 7.48719 36.4763 11.5492C37.4152 13.7253 37.9132 16.081 38 18.4471V19.5462C37.8961 22.6011 37.0767 25.6359 35.5619 28.2944C34.2304 30.6627 32.3839 32.7401 30.1892 34.3418C28.025 35.9286 25.5209 37.053 22.892 37.5977C21.7721 37.8389 20.6284 37.9532 19.4846 38H18.5176C15.7544 37.9161 13.0061 37.2496 10.5346 36.0043C6.5691 34.0286 3.33391 30.6286 1.57344 26.5607C0.598945 24.3571 0.0883203 21.9606 0 19.5559V18.453C0.0972266 15.5822 0.821602 12.727 2.17387 10.188C3.93508 6.82219 6.73609 4.0093 10.0908 2.22582C12.6729 0.834961 15.5852 0.0860937 18.5139 0ZM17.48 9.68926C16.5345 10.5302 16.101 11.8164 16.0587 13.0551C16.0468 13.9605 16.0572 14.8668 16.0535 15.7722C15.3277 15.7759 14.6025 15.7722 13.8767 15.7745C13.8752 17.0718 13.8759 18.3699 13.8767 19.6672C14.6018 19.6687 15.3277 19.6672 16.0535 19.6687C16.0565 23.3329 16.0483 26.9986 16.0572 30.6627L16.0802 30.6843C17.598 30.6902 19.1158 30.6857 20.6336 30.6865C20.635 27.0134 20.6336 23.3411 20.6343 19.6687C21.6645 19.6665 22.6954 19.6702 23.7255 19.6665C23.8576 18.3691 23.9927 17.0725 24.1248 15.7745C22.9625 15.773 21.7995 15.7737 20.6373 15.7745C20.6328 15.0449 20.6373 14.3153 20.6343 13.5857C20.6343 13.3512 20.6484 13.1055 20.7612 12.894C20.9126 12.589 21.2622 12.425 21.5925 12.4302C22.4185 12.4272 23.2438 12.4309 24.0699 12.4287C24.0714 11.1684 24.0699 9.90895 24.0706 8.64945C22.9254 8.6398 21.7795 8.63758 20.6343 8.63461C19.5106 8.63387 18.3328 8.92332 17.48 9.68926Z" fill="#D52A33"/>
</svg>
