<svg width="31" height="24" viewBox="0 0 31 24" fill="none" xmlns="http://www.w3.org/2000/svg">
<path d="M0.865625 1.11797C1.22187 0.621679 1.82598 0.321679 2.43594 0.332812C11.1266 0.331054 19.8166 0.332812 28.5072 0.33164C28.8535 0.326952 29.2039 0.397265 29.508 0.567187C30.06 0.860156 30.4232 1.43965 30.5 2.0543V21.9059C30.4484 22.4215 30.1994 22.9184 29.7916 23.2424C29.4342 23.5365 28.9678 23.6795 28.5072 23.6678C19.8939 23.6684 11.2812 23.6672 2.66797 23.6684C2.28008 23.6801 1.87813 23.642 1.53184 23.4533C0.960547 23.1662 0.576758 22.5773 0.5 21.9475V2.06777C0.547461 1.72851 0.658789 1.39336 0.865625 1.11797ZM2.4043 2.23945C2.40488 6.72422 2.4043 11.209 2.40488 15.6938C4.73164 12.9914 7.05664 10.2873 9.3834 7.58437C9.66934 7.23574 10.124 7.03535 10.5746 7.06875C10.9689 7.08984 11.3451 7.2873 11.5941 7.59258C14.0873 10.5691 16.5787 13.5469 19.0719 16.5234C20.3328 15.2648 21.5914 14.0045 22.8512 12.7447C23.3504 12.201 24.2768 12.16 24.8205 12.6609C26.082 13.8 27.3359 14.9479 28.5951 16.0893C28.5957 11.4727 28.5951 6.85605 28.5951 2.23945C19.8652 2.23769 11.1348 2.23769 2.4043 2.23945Z" fill="white"/>
<path d="M22.8371 4.63591C23.5607 4.55505 24.3137 4.79118 24.8551 5.27927C25.4299 5.78317 25.7621 6.54841 25.7346 7.31247C25.7182 8.07653 25.3432 8.82126 24.7414 9.29118C24.1941 9.73298 23.46 9.92751 22.7645 9.83083C22.0098 9.73181 21.3113 9.28181 20.907 8.63727C20.4787 7.97224 20.385 7.10856 20.6504 6.36442C20.9703 5.43278 21.8557 4.73024 22.8371 4.63591Z" fill="white"/>
</svg>
