<svg width="38" height="38" viewBox="0 0 38 38" fill="none" xmlns="http://www.w3.org/2000/svg">
<circle cx="19" cy="19" r="15" fill="white"/>
<path d="M18.3677 0H19.4928C22.2211 0.0801563 24.9353 0.731797 27.383 1.94453C31.2728 3.85789 34.4724 7.13688 36.2744 11.0809C37.3395 13.3839 37.9072 15.9036 38 18.4359V19.4936C37.9065 22.5684 37.0893 25.6277 35.5634 28.3033C34.3202 30.5165 32.628 32.4759 30.6189 34.0278C28.4102 35.7423 25.8192 36.9654 23.0857 37.5577C21.9064 37.8271 20.6989 37.9488 19.4921 38H18.5057C15.6164 37.9117 12.7434 37.1843 10.185 35.8328C7.23781 34.2846 4.70621 31.9504 2.9309 29.1338C1.11031 26.2861 0.11207 22.938 0 19.5633V18.4374C0.118008 14.7406 1.31516 11.0779 3.46676 8.06387C5.75492 4.80195 9.09699 2.29262 12.8703 1.0116C14.6404 0.403008 16.5003 0.0846094 18.3677 0ZM15.8962 8.10691C14.6983 8.14402 13.4759 8.13957 12.3211 8.50102C10.6355 8.98195 9.20832 10.2964 8.62496 11.9537C8.1418 13.2154 8.14477 14.5855 8.10617 15.9162C8.08613 17.9342 8.08836 19.9522 8.10395 21.9702C8.14402 23.2141 8.12695 24.4862 8.50324 25.6864C8.84316 26.8598 9.57719 27.91 10.5628 28.6314C11.6011 29.404 12.9007 29.7402 14.1765 29.8241C14.9922 29.8745 15.8086 29.8975 16.6257 29.9005C18.9243 29.899 21.2243 29.9443 23.5214 29.8426C24.8996 29.7862 26.318 29.4648 27.4402 28.6262C28.4525 27.8884 29.1865 26.7959 29.5242 25.5928C29.8664 24.4425 29.856 23.2305 29.8938 22.0422C29.9027 20.8562 29.9102 19.6709 29.9079 18.4857C29.8931 16.9241 29.9295 15.3588 29.7914 13.8017C29.6526 12.3738 29.1279 10.9324 28.0777 9.92008C27.0513 8.85355 25.5817 8.33254 24.1322 8.20191C22.4994 8.06535 20.8599 8.10914 19.2234 8.08984C18.1146 8.09504 17.005 8.09355 15.8962 8.10691Z" fill="#D52A33"/>
<path d="M14.1372 10.1502C15.7559 10.0307 17.3798 10.0745 19.0015 10.0544C20.5861 10.073 22.1736 10.0344 23.7559 10.142C24.5248 10.2006 25.3019 10.3661 25.9758 10.7543C26.6839 11.1766 27.2487 11.8453 27.5255 12.6239C27.7281 13.1664 27.8246 13.7423 27.8632 14.3183C27.9612 15.8509 27.9293 17.3865 27.9434 18.9206C27.9352 20.1088 27.9463 21.2978 27.9166 22.4853C27.8825 23.4568 27.8751 24.4558 27.5248 25.3769C27.2086 26.2378 26.5569 26.9689 25.7324 27.3719C24.982 27.7415 24.1367 27.8506 23.3106 27.8847C21.8745 27.9582 20.4369 27.9285 19 27.9463C17.3791 27.9248 15.7559 27.9701 14.1379 27.8491C13.1137 27.7615 12.045 27.4505 11.3146 26.6891C10.4841 25.8949 10.1917 24.7141 10.1309 23.603C10.0247 21.5761 10.0655 19.5455 10.0618 17.5164C10.0626 16.4253 10.067 15.3328 10.1412 14.2426C10.1999 13.4737 10.3676 12.6959 10.7565 12.022C11.1528 11.3666 11.7525 10.8248 12.4665 10.5383C12.9964 10.3157 13.5657 10.1999 14.1372 10.1502ZM24.4484 11.9218C23.9712 12.0598 23.5964 12.4903 23.5296 12.9823C23.4524 13.4559 23.6661 13.9591 24.0573 14.2359C24.4974 14.5654 25.1483 14.5654 25.5899 14.2366C26.0671 13.9034 26.2638 13.2339 26.0411 12.6959C25.8118 12.0776 25.0763 11.7184 24.4484 11.9218ZM18.0018 13.487C16.3229 13.778 14.8185 14.8905 14.0355 16.4023C13.3905 17.6203 13.2295 19.0809 13.5783 20.4139C13.8611 21.5101 14.4905 22.5128 15.3507 23.2483C16.2621 24.0365 17.4347 24.5159 18.6371 24.5894C19.9389 24.6777 21.2681 24.2925 22.3161 23.514C23.3455 22.7614 24.104 21.6459 24.4217 20.4102C24.7601 19.1158 24.6161 17.7012 24.0157 16.5048C23.462 15.3863 22.5232 14.4645 21.3928 13.9338C20.3463 13.4351 19.1425 13.2814 18.0018 13.487Z" fill="#D52A33"/>
</svg>
