<svg width="39" height="38" viewBox="0 0 39 38" fill="none" xmlns="http://www.w3.org/2000/svg">
<ellipse cx="19.5" cy="19.0491" rx="16.5" ry="15.5" fill="white"/>
<path d="M18.918 0H20.0027C22.8226 0.0801563 25.6273 0.739961 28.1531 1.96828C32.1575 3.90168 35.4428 7.21035 37.277 11.1833C38.3404 13.4588 38.9063 15.9429 39 18.4389V19.5604C38.8895 22.6093 38.0562 25.6418 36.5031 28.2966C35.2264 30.5136 33.4874 32.4752 31.4232 34.0293C29.1555 35.743 26.4956 36.9669 23.6887 37.5584C22.4806 37.8271 21.2428 37.9488 20.0065 38H18.9957C16.0852 37.9132 13.1907 37.2133 10.6024 35.9078C6.55078 33.8868 3.27158 30.4423 1.5143 26.3506C0.581953 24.2064 0.0883594 21.8916 0 19.5663V18.4359C0.0662695 16.8447 0.303164 15.2579 0.760957 13.7275C2.04979 9.3293 5.04715 5.43801 9.00885 2.98879C11.9491 1.13035 15.421 0.116523 18.918 0ZM10.8583 8.14699C10.1019 8.27836 9.38971 8.73703 9.05379 9.42207C8.55105 10.4062 8.81994 11.728 9.74543 12.3856C10.4371 12.8933 11.3679 12.9964 12.1982 12.8198C12.8837 12.678 13.5182 12.2595 13.8503 11.6501C14.3957 10.689 14.1604 9.36418 13.2821 8.66504C12.6163 8.1277 11.6886 8.00152 10.8583 8.14699ZM23.7641 14.728C22.6787 15.056 21.805 15.8457 21.2101 16.7705C21.2116 16.1144 21.2093 15.4583 21.2116 14.8022C19.6295 14.7948 18.0466 14.8022 16.4638 14.7985C16.5171 19.4394 16.4706 24.081 16.4615 28.7219C18.0444 28.7234 19.6272 28.7219 21.2101 28.7227C21.2116 26.1243 21.2093 23.5266 21.2116 20.9289C21.2123 20.4747 21.2451 20.0012 21.4736 19.5952C21.8225 18.8835 22.5004 18.3038 23.3116 18.171C24.081 18.0374 24.9684 18.1999 25.494 18.8041C26.0721 19.4698 26.1955 20.3842 26.2077 21.2266C26.2107 23.7248 26.2085 26.2237 26.2092 28.7219C27.7921 28.7234 29.3749 28.7227 30.9578 28.7227C30.9578 26.0515 30.9593 23.3811 30.957 20.71C30.9509 19.4654 30.7552 18.1903 30.1603 17.0748C29.6438 16.0862 28.7663 15.2757 27.7037 14.8682C26.4591 14.3955 25.0407 14.342 23.7641 14.728ZM9.08502 14.7992C9.08273 19.4394 9.08654 24.0803 9.0835 28.7212C10.6679 28.7212 12.253 28.7293 13.8374 28.7167C13.8282 24.078 13.8359 19.4386 13.8336 14.8C12.2507 14.7985 10.6679 14.8 9.08502 14.7992Z" fill="#D52A33"/>
</svg>
