<svg width="27" height="26" viewBox="0 0 27 26" fill="none" xmlns="http://www.w3.org/2000/svg">
<path d="M13.3197 0H13.6787C15.4647 0.0335156 17.2395 0.553008 18.7533 1.50363C20.2656 2.44563 21.5189 3.79945 22.3375 5.3823C23.022 6.69602 23.4033 8.16613 23.446 9.64691C23.5298 11.9737 22.7478 14.3096 21.3061 16.1352C18.8483 19.4233 16.3905 22.7119 13.9326 26H13.0704C10.5501 22.6352 8.03593 19.2659 5.51871 15.8991C4.65594 14.7448 4.04961 13.4007 3.75762 11.99C3.38996 10.235 3.50777 8.38094 4.09836 6.68789C4.81996 4.59926 6.26621 2.77469 8.12531 1.58234C9.66449 0.582969 11.4865 0.0380859 13.3197 0ZM13.0176 6.68789C12.2863 6.79352 11.5977 7.15812 11.095 7.69895C10.5105 8.31086 10.1819 9.15789 10.2002 10.0044C10.2078 10.8393 10.5547 11.6634 11.1417 12.2566C11.5962 12.7263 12.1934 13.0543 12.8337 13.1854C13.5289 13.3301 14.2714 13.2417 14.9122 12.935C15.6917 12.5663 16.3163 11.8803 16.6058 11.0673C16.8642 10.3548 16.8648 9.55246 16.6063 8.84C16.3382 8.08387 15.7796 7.43742 15.0757 7.05453C14.4542 6.71074 13.7189 6.5843 13.0176 6.68789Z" fill="#D52A33"/>
</svg>
