<svg width="30" height="30" viewBox="0 0 30 30" fill="none" xmlns="http://www.w3.org/2000/svg">
<path d="M1.50763 4.71621C1.87794 4.54512 2.28165 4.44785 2.69064 4.45371C10.582 4.45254 18.4734 4.45371 26.3648 4.45312C27.0785 4.46133 27.8326 4.37754 28.4924 4.71621C24.883 8.31035 21.2707 11.9016 17.6602 15.4945C17.1674 15.9592 16.7338 16.5199 16.1039 16.8076C15.3639 17.1539 14.4574 17.1299 13.7438 16.7285C13.4895 16.6037 13.2809 16.408 13.0711 16.2229C9.21681 12.3867 5.36075 8.55293 1.50763 4.71621Z" fill="#D52A33"/>
<path d="M0.2625 5.96075C3.29707 8.97189 6.32871 11.9865 9.36152 15C6.32871 18.0135 3.29707 21.0281 0.2625 24.0393C0.110156 23.7076 0.0164062 23.3496 0 22.9846V7.02247C0.0146484 6.65509 0.110742 6.29474 0.2625 5.96075Z" fill="#D52A33"/>
<path d="M20.6385 15C23.6713 11.9865 26.7029 8.97189 29.7375 5.96075C29.8887 6.29239 29.9836 6.64923 30 7.01427V22.9775C29.9854 23.3455 29.8893 23.7053 29.7375 24.0393C26.7029 21.0281 23.6713 18.0135 20.6385 15Z" fill="#D52A33"/>
<path d="M1.50818 25.2838C4.53865 22.2692 7.57263 19.2568 10.6054 16.244C11.0648 16.6969 11.5136 17.1621 11.9789 17.6092C12.7541 18.351 13.8111 18.7869 14.8834 18.8109C15.9357 18.8426 16.9951 18.4787 17.8025 17.8025C18.3597 17.3115 18.8613 16.7608 19.3945 16.244C22.4273 19.2568 25.4613 22.2692 28.4918 25.2838C28.1209 25.4555 27.716 25.5522 27.3064 25.5463C19.1027 25.5475 10.8996 25.5469 2.69646 25.5463C2.28572 25.5527 1.87966 25.4555 1.50818 25.2838Z" fill="#D52A33"/>
</svg>
