<svg width="27" height="21" viewBox="0 0 27 21" fill="none" xmlns="http://www.w3.org/2000/svg">
<path d="M23.25 0.700867H3.75C2.88805 0.700867 2.0614 1.04328 1.4519 1.65277C0.84241 2.26227 0.5 3.08892 0.5 3.95087L0.5 6.11754H26.5V3.95087C26.5 3.08892 26.1576 2.26227 25.5481 1.65277C24.9386 1.04328 24.1119 0.700867 23.25 0.700867Z" fill="white"/>
<path d="M0.5 20.2009H26.5V8.28421H0.5V20.2009ZM8.08333 14.2425C8.08333 14.5639 7.98803 14.8781 7.80947 15.1453C7.63091 15.4126 7.37712 15.6209 7.08019 15.7438C6.78326 15.8668 6.45653 15.899 6.14131 15.8363C5.82609 15.7736 5.53654 15.6189 5.30928 15.3916C5.08202 15.1643 4.92726 14.8748 4.86456 14.5596C4.80186 14.2443 4.83404 13.9176 4.95703 13.6207C5.08002 13.3238 5.2883 13.07 5.55553 12.8914C5.82276 12.7128 6.13694 12.6175 6.45833 12.6175C6.88931 12.6175 7.30263 12.7887 7.60738 13.0935C7.91213 13.3982 8.08333 13.8116 8.08333 14.2425Z" fill="white"/>
</svg>
