<svg width="31" height="30" viewBox="0 0 31 30" fill="none" xmlns="http://www.w3.org/2000/svg">
<path d="M7.61033 0H7.74275C8.31756 0.0398437 8.84139 0.345117 9.24451 0.743555C9.99803 1.44258 10.5306 2.33262 11.0814 3.18984C11.6656 4.09746 12.2428 5.03262 12.5275 6.0832C12.6916 6.72832 12.6951 7.43437 12.4209 8.05078C12.1994 8.57344 11.7974 8.99121 11.3691 9.35273C10.9771 9.68027 10.6156 10.0465 10.1902 10.3324C9.84451 10.5861 9.47479 10.824 9.21873 11.1762C8.87244 11.6238 8.74705 12.2121 8.80623 12.7688C8.8865 13.6049 9.25623 14.3771 9.65643 15.1037C10.5541 16.6336 11.7125 17.9889 12.916 19.2844C13.6894 20.0766 14.4986 20.8447 15.4256 21.4582C16.0976 21.8795 16.8494 22.2621 17.6644 22.241C18.2685 22.2334 18.8328 21.924 19.2406 21.4916C19.5951 21.1248 19.9461 20.7539 20.3433 20.4316C20.8314 20.0051 21.3131 19.5369 21.9365 19.3148C22.6179 19.0535 23.3855 19.1244 24.0535 19.391C24.9752 19.7689 25.7703 20.3854 26.5215 21.0275C27.0558 21.4893 27.5984 21.9428 28.1082 22.4326C28.6133 22.9518 29.1242 23.5084 29.3679 24.2039C29.5554 24.7172 29.4939 25.3096 29.2021 25.7713C28.7908 26.424 28.124 26.8465 27.5762 27.3727C25.9097 29.0338 23.5754 29.9736 21.2269 30H21.0857C19.9519 29.99 18.8217 29.8061 17.74 29.465C15.2152 28.6664 12.9892 27.1395 11.017 25.4027C9.58904 24.1336 8.27889 22.7373 7.05838 21.2689C5.3492 19.21 3.8117 16.9793 2.74412 14.5166C1.98299 12.7301 1.48377 10.8023 1.52889 8.84941C1.5576 7.33359 1.91736 5.8166 2.63514 4.47715C3.23397 3.38965 4.02908 2.40117 5.01463 1.63945C5.23436 1.47187 5.43768 1.2832 5.64627 1.10273C6.20643 0.601172 6.81521 0.0363281 7.61033 0Z" fill="#D52A33"/>
</svg>
