<svg width="28" height="28" viewBox="0 0 28 28" fill="none" xmlns="http://www.w3.org/2000/svg">
<path d="M21.3543 19.834L21.3549 19.8332C23.0902 17.7494 24.0432 15.1038 24.0432 12.3937V12.3935C24.0379 5.97714 18.8174 0.75 12.3966 0.75C5.97595 0.75 0.75 5.97707 0.75 12.3989C0.75 18.8207 5.97595 24.0478 12.3966 24.0478C15.1064 24.0478 17.7461 23.0945 19.8345 21.3592L19.8355 21.3584L19.9534 21.2594L25.6704 26.9776C25.8412 27.1484 26.0717 27.25 26.3241 27.25C26.5687 27.25 26.7999 27.1554 26.9777 26.9776C27.1484 26.8068 27.25 26.5763 27.25 26.3239C27.25 26.073 27.1547 25.8473 26.9777 25.6702L26.9776 25.6702L21.2554 19.9519L21.3543 19.834ZM12.3966 22.2009C6.99109 22.2009 2.59663 17.8006 2.59663 12.3989C2.59663 6.99217 6.99616 2.59691 12.3966 2.59691C17.797 2.59691 22.1966 6.99733 22.1966 12.3989C22.1966 17.8057 17.8022 22.2009 12.3966 22.2009Z" fill="white" stroke="white" stroke-width="0.5"/>
</svg>
