<svg width="26" height="28" viewBox="0 0 26 28" fill="none" xmlns="http://www.w3.org/2000/svg">
<path d="M0.663136 20.8206C1.63477 22.4526 3.78953 23.0133 5.47588 22.073C5.47704 22.0723 5.47814 22.0717 5.47929 22.0711L6.002 21.7789C6.98872 22.5959 8.1229 23.2295 9.34744 23.6478V24.231C9.34744 26.1144 10.9252 27.6413 12.8714 27.6413C14.8177 27.6413 16.3954 26.1144 16.3954 24.231V23.6478C17.6201 23.2288 18.7544 22.5945 19.7409 21.7767L20.266 22.0699C21.9527 23.0117 24.109 22.4518 25.0821 20.8195C26.0552 19.1872 25.4767 17.1004 23.79 16.1587L23.2684 15.8677C23.5032 14.6314 23.5032 13.364 23.2684 12.1277L23.79 11.8367C25.4767 10.8949 26.0552 8.80825 25.0821 7.17588C24.109 5.54356 21.9527 4.98368 20.266 5.92541L19.7432 6.21758C18.7555 5.4016 17.6206 4.7692 16.3954 4.35218V3.76901C16.3954 1.88556 14.8177 0.358688 12.8714 0.358688C10.9252 0.358688 9.34744 1.88556 9.34744 3.76901V4.35218C8.12274 4.77117 6.9885 5.40549 6.002 6.22333L5.47693 5.92892C3.79014 4.98714 1.63389 5.54702 0.660769 7.17934C-0.312352 8.81166 0.266135 10.8984 1.95292 11.8401L2.47447 12.1311C2.23969 13.3674 2.23969 14.6348 2.47447 15.8711L1.95292 16.1621C0.270816 17.1064 -0.3058 19.189 0.663136 20.8206ZM12.8714 9.45291C15.4664 9.45291 17.5701 11.4887 17.5701 14C17.5701 16.5113 15.4664 18.5471 12.8714 18.5471C10.2765 18.5471 8.17279 16.5113 8.17279 14C8.17279 11.4887 10.2765 9.45291 12.8714 9.45291Z" fill="white"/>
</svg>
