<svg width="31" height="30" viewBox="0 0 31 30" fill="none" xmlns="http://www.w3.org/2000/svg">
<path d="M24.6717 18.3331C23.7277 18.3339 22.798 18.5646 21.9629 19.0053C21.1278 19.4461 20.4124 20.0836 19.8784 20.863L11.7515 17.1894C12.3287 15.794 12.331 14.2267 11.7578 12.8296L19.8734 9.13733C20.6649 10.2832 21.8403 11.1072 23.1866 11.4598C24.5329 11.8124 25.9609 11.6702 27.2114 11.0591C28.462 10.448 29.4524 9.40844 30.0029 8.12897C30.5534 6.8495 30.6276 5.41487 30.212 4.08531C29.7965 2.75576 28.9187 1.61935 27.7378 0.882207C26.557 0.145069 25.1514 -0.143968 23.7759 0.0675259C22.4004 0.279019 21.1462 0.977035 20.2408 2.03496C19.3354 3.09288 18.8387 4.44064 18.8409 5.83376C18.8462 6.16349 18.8796 6.49217 18.9408 6.8162L10.3132 10.741C9.48454 9.96381 8.44719 9.44586 7.32856 9.25078C6.20993 9.0557 5.05873 9.19198 4.01641 9.64288C2.97408 10.0938 2.08602 10.8397 1.46132 11.7889C0.836627 12.7381 0.502509 13.8494 0.500014 14.9861C0.497519 16.1228 0.826757 17.2355 1.44728 18.1875C2.0678 19.1395 2.95258 19.8892 3.99292 20.3447C5.03326 20.8002 6.18384 20.9415 7.30332 20.7514C8.4228 20.5612 9.46241 20.0478 10.2944 19.2743L18.9445 23.1841C18.8844 23.5079 18.8514 23.8361 18.8459 24.1653C18.8456 25.3192 19.1872 26.4472 19.8274 27.4067C20.4676 28.3662 21.3776 29.114 22.4424 29.5557C23.5072 29.9974 24.679 30.113 25.8094 29.888C26.9399 29.6629 27.9783 29.1073 28.7933 28.2914C29.6083 27.4755 30.1633 26.436 30.3881 25.3043C30.6129 24.1726 30.4974 22.9996 30.0562 21.9336C29.615 20.8676 28.8679 19.9566 27.9095 19.3157C26.9511 18.6748 25.8243 18.3329 24.6717 18.3331ZM24.6717 2.50018C25.3303 2.49993 25.9743 2.69523 26.522 3.06138C27.0698 3.42753 27.4968 3.94808 27.749 4.55719C28.0013 5.16629 28.0674 5.83661 27.939 6.48334C27.8107 7.13007 27.4936 7.72417 27.028 8.19051C26.5623 8.65684 25.969 8.97446 25.323 9.10319C24.6771 9.23192 24.0075 9.16597 23.3989 8.9137C22.7904 8.66142 22.2702 8.23415 21.9043 7.68592C21.5383 7.13769 21.343 6.49313 21.343 5.83376C21.3437 4.95006 21.6945 4.10272 22.3186 3.47773C22.9427 2.85275 23.789 2.50117 24.6717 2.50018ZM6.3602 18.3331C5.70155 18.3334 5.05762 18.1381 4.50986 17.7719C3.96209 17.4058 3.53509 16.8852 3.28286 16.2761C3.03064 15.667 2.96451 14.9967 3.09286 14.3499C3.2212 13.7032 3.53825 13.1091 4.0039 12.6428C4.46955 12.1764 5.06288 11.8588 5.70886 11.7301C6.35484 11.6014 7.02444 11.6673 7.63298 11.9196C8.24151 12.1719 8.76165 12.5991 9.1276 13.1474C9.49356 13.6956 9.68888 14.3402 9.68888 14.9995C9.68789 15.8831 9.33692 16.7303 8.71292 17.3552C8.08892 17.9801 7.24284 18.3318 6.3602 18.3331ZM24.6717 27.4989C24.0131 27.4989 23.3693 27.3034 22.8217 26.9371C22.2741 26.5708 21.8473 26.0501 21.5952 25.441C21.3432 24.8319 21.2773 24.1616 21.4057 23.515C21.5342 22.8683 21.8514 22.2743 22.3171 21.8081C22.7828 21.3419 23.3761 21.0244 24.0221 20.8958C24.668 20.7672 25.3375 20.8332 25.946 21.0855C26.5545 21.3378 27.0745 21.7651 27.4404 22.3133C27.8063 22.8615 28.0016 23.506 28.0016 24.1653C28.001 25.0492 27.6499 25.8967 27.0256 26.5218C26.4012 27.1468 25.5546 27.4982 24.6717 27.4989Z" fill="#D52A33"/>
</svg>
