<svg width="16" height="17" viewBox="0 0 16 17" fill="none" xmlns="http://www.w3.org/2000/svg">
<path d="M12.8916 10.6035C12.3881 10.6039 11.8923 10.7269 11.4469 10.962C11.0015 11.1971 10.62 11.5371 10.3352 11.9527L6.00081 9.99349C6.30866 9.24929 6.30986 8.41337 6.00414 7.66828L10.3325 5.69905C10.7546 6.31019 11.3815 6.74964 12.0995 6.93768C12.8176 7.12573 13.5791 7.04992 14.2461 6.724C14.9131 6.39808 15.4413 5.84364 15.7349 5.16126C16.0285 4.47887 16.0681 3.71373 15.8464 3.00464C15.6248 2.29554 15.1566 1.68946 14.5268 1.29632C13.8971 0.903176 13.1474 0.749023 12.4138 0.861819C11.6802 0.974616 11.0113 1.34689 10.5284 1.91112C10.0455 2.47534 9.78065 3.19414 9.7818 3.93714C9.78462 4.113 9.80245 4.28829 9.83507 4.46112L5.23369 6.55434C4.79176 6.13984 4.2385 5.8636 3.6419 5.75956C3.04529 5.65551 2.43132 5.72819 1.87542 5.96867C1.31951 6.20916 0.845875 6.60696 0.512705 7.11322C0.179535 7.61948 0.00133808 8.21214 7.50617e-06 8.81839C-0.00132307 9.42464 0.17427 10.0181 0.505215 10.5258C0.83616 11.0335 1.30804 11.4334 1.86289 11.6763C2.41774 11.9192 3.03138 11.9946 3.62844 11.8932C4.22549 11.7918 4.77995 11.518 5.2237 11.1054L9.83707 13.1907C9.80503 13.3633 9.78743 13.5384 9.78447 13.714C9.78433 14.3294 9.96651 14.931 10.3079 15.4427C10.6494 15.9544 11.1347 16.3533 11.7026 16.5889C12.2705 16.8244 12.8955 16.8861 13.4984 16.7661C14.1013 16.646 14.6551 16.3497 15.0898 15.9146C15.5244 15.4794 15.8204 14.925 15.9403 14.3214C16.0602 13.7179 15.9986 13.0923 15.7633 12.5237C15.528 11.9552 15.1296 11.4693 14.6184 11.1275C14.1072 10.7857 13.5063 10.6033 12.8916 10.6035ZM12.8916 2.15923C13.2428 2.1591 13.5863 2.26326 13.8784 2.45854C14.1706 2.65382 14.3983 2.93145 14.5328 3.2563C14.6673 3.58116 14.7026 3.93866 14.6342 4.28359C14.5657 4.62851 14.3966 4.94536 14.1483 5.19408C13.8999 5.44279 13.5835 5.61218 13.239 5.68084C12.8944 5.74949 12.5373 5.71432 12.2128 5.57978C11.8882 5.44523 11.6108 5.21735 11.4156 4.92496C11.2204 4.63257 11.1163 4.28881 11.1163 3.93714C11.1166 3.46584 11.3038 3.01392 11.6366 2.6806C11.9694 2.34727 12.4208 2.15976 12.8916 2.15923ZM3.12544 10.6035C2.77416 10.6036 2.43073 10.4994 2.13859 10.3042C1.84645 10.1089 1.61871 9.83125 1.48419 9.50639C1.34967 9.18153 1.31441 8.82403 1.38286 8.47911C1.45131 8.13419 1.6204 7.81733 1.86875 7.56862C2.11709 7.31991 2.43354 7.15051 2.77806 7.08186C3.12258 7.0132 3.4797 7.04837 3.80425 7.18292C4.12881 7.31746 4.40621 7.54534 4.60139 7.83773C4.79656 8.13012 4.90074 8.47389 4.90074 8.82555C4.90021 9.29681 4.71302 9.74862 4.38022 10.0819C4.04742 10.4152 3.59618 10.6028 3.12544 10.6035ZM12.8916 15.4919C12.5403 15.4919 12.1969 15.3876 11.9049 15.1922C11.6128 14.9969 11.3852 14.7192 11.2508 14.3943C11.1164 14.0695 11.0812 13.712 11.1497 13.3671C11.2183 13.0222 11.3874 12.7054 11.6358 12.4568C11.8841 12.2082 12.2006 12.0388 12.5451 11.9702C12.8896 11.9016 13.2467 11.9368 13.5712 12.0714C13.8957 12.206 14.1731 12.4338 14.3682 12.7262C14.5634 13.0186 14.6675 13.3623 14.6675 13.714C14.6672 14.1854 14.48 14.6374 14.147 14.9707C13.814 15.3041 13.3625 15.4915 12.8916 15.4919Z" fill="white"/>
</svg>
