<svg width="29" height="28" viewBox="0 0 29 28" fill="none" xmlns="http://www.w3.org/2000/svg">
<path d="M0.000410342 13.984C-0.0115786 16.8991 2.42069 19.2717 5.43304 19.2833C6.82034 19.2886 8.15765 18.7822 9.17269 17.867L17.3008 21.4185C17.2443 21.7126 17.2133 22.0107 17.2081 22.3098C17.1986 25.245 19.6495 27.632 22.6826 27.6413C25.7157 27.6506 28.1822 25.2787 28.1918 22.3434C28.2015 19.4082 25.7504 17.0212 22.7174 17.0119C20.9052 17.0064 19.2069 17.8663 18.1784 19.3101L10.5419 15.9732C11.0843 14.7057 11.0864 13.282 10.5477 12.013L18.1737 8.65903C19.8909 11.0625 23.2964 11.6637 25.78 10.0019C28.2637 8.34008 28.8848 5.04453 27.1676 2.64102C25.4504 0.237504 22.0449 -0.36368 19.5613 1.29815C18.0822 2.28784 17.2006 3.91805 17.2034 5.65827C17.2083 5.9578 17.2397 6.25632 17.2973 6.55068L9.19029 10.1157C6.99385 8.1198 3.54132 8.22491 1.47884 10.3505C0.524293 11.3343 -0.00475919 12.6345 0.000410342 13.984Z" fill="#696969"/>
</svg>
