<svg width="27" height="23" viewBox="0 0 27 23" fill="none" xmlns="http://www.w3.org/2000/svg">
<path d="M5.51237 21.7467C5.88656 22.2912 6.53398 22.6345 7.19619 22.63C7.9079 22.6307 8.61962 22.6358 9.33134 22.6275C10.1819 22.6133 10.9721 22.0045 11.2183 21.1931C11.2839 20.9932 11.3045 20.7829 11.3205 20.574C15.9702 20.574 20.6198 20.5733 25.2694 20.5746C25.578 20.5682 25.9097 20.6138 26.1913 20.4576C26.5848 20.2545 26.8208 19.7832 26.7256 19.346C26.6401 18.8799 26.1965 18.5096 25.7201 18.5186C20.9207 18.5141 16.1206 18.5179 11.3205 18.5166C11.3032 18.1013 11.19 17.684 10.9451 17.3439C10.5722 16.7981 9.92218 16.458 9.26061 16.4606C8.57461 16.458 7.88862 16.4586 7.20262 16.4606C6.50762 16.4548 5.82869 16.8322 5.46158 17.4211C5.24878 17.7458 5.15491 18.1322 5.13755 18.5166C3.76748 18.5179 2.39677 18.5141 1.02606 18.5186C0.478933 18.5063 -0.0174033 19.0001 0.00124148 19.5485C-0.0135457 20.0937 0.475076 20.5856 1.02092 20.5721C2.39291 20.5766 3.76555 20.5727 5.13755 20.574C5.15427 20.9893 5.26806 21.4059 5.51237 21.7467Z" fill="#D52A33"/>
<path d="M13.7418 13.5178C14.116 14.0611 14.7628 14.4044 15.4237 14.4005C16.1116 14.4031 16.8002 14.4031 17.4881 14.4005C18.1671 14.4057 18.8325 14.0476 19.2015 13.4779C19.4298 13.1449 19.5326 12.7437 19.55 12.3445C21.6073 12.3432 23.6647 12.347 25.7221 12.3425C26.2679 12.3567 26.7565 11.8623 26.7443 11.3184C26.7604 10.7712 26.2692 10.2762 25.7221 10.289C23.6647 10.2845 21.6073 10.2884 19.55 10.2871C19.5326 9.87115 19.4188 9.45325 19.1732 9.1125C18.7997 8.56666 18.1491 8.22784 17.4875 8.23106C16.8015 8.22848 16.1149 8.22913 15.4289 8.23106C14.7506 8.22655 14.0864 8.58659 13.7155 9.15365C13.4872 9.48668 13.3844 9.88787 13.367 10.2871C9.2536 10.2884 5.14018 10.2845 1.0274 10.289C0.480274 10.2762 -0.0160622 10.7687 0.0012967 11.3164C-0.0147764 11.8636 0.475131 12.3567 1.02226 12.3425C5.13696 12.347 9.25231 12.3432 13.367 12.3445C13.3837 12.7598 13.4975 13.1771 13.7418 13.5178Z" fill="#D52A33"/>
<path d="M5.62619 5.43631C6.00873 5.89664 6.59958 6.17502 7.19878 6.17117C7.88606 6.17374 8.5727 6.17374 9.25935 6.17117C9.93956 6.17631 10.6056 5.81627 10.974 5.246C11.201 4.91361 11.3032 4.51371 11.3206 4.1151C16.1206 4.11382 20.9213 4.11703 25.7214 4.11382C26.2672 4.12732 26.7565 3.63291 26.7443 3.089C26.7603 2.54251 26.2698 2.04746 25.7227 2.05968C20.922 2.05518 16.1213 2.05904 11.3206 2.05775C11.3032 1.64242 11.19 1.22581 10.9457 0.885703C10.5728 0.33922 9.92284 -0.00088644 9.26127 0.00168562C8.57463 -0.00088644 7.88735 -0.000243187 7.20071 0.00168562C6.6613 -0.000243187 6.12896 0.222852 5.74899 0.604105C5.36002 0.983429 5.15171 1.51898 5.13757 2.05775C3.7675 2.05904 2.39743 2.05518 1.02672 2.05968C0.504668 2.04875 0.0231191 2.49687 0.00318848 3.02021C-0.0315293 3.43618 0.220496 3.85407 0.60175 4.02252C0.833845 4.13567 1.09809 4.11446 1.34818 4.11639C2.61153 4.11381 3.87423 4.11574 5.13757 4.1151C5.15364 4.59279 5.31051 5.07113 5.62619 5.43631Z" fill="#D52A33"/>
</svg>
