<svg width="38" height="36" viewBox="0 0 38 36" fill="none" xmlns="http://www.w3.org/2000/svg">
<path d="M16.9092 1.37226C17.5141 -0.457417 20.1022 -0.457421 20.7071 1.37226L23.7841 10.6802C24.0548 11.4993 24.8203 12.0525 25.683 12.0525H35.566C37.5118 12.0525 38.3117 14.5493 36.7282 15.6801L28.7925 21.3471C28.0794 21.8563 27.7808 22.7705 28.0558 23.6024L31.101 32.8141C31.7081 34.6507 29.6139 36.1936 28.0398 35.0694L19.9704 29.307C19.2751 28.8105 18.3412 28.8105 17.6458 29.307L9.5765 35.0694C8.00235 36.1936 5.90816 34.6507 6.51528 32.8141L9.56043 23.6024C9.83546 22.7705 9.53689 21.8563 8.82379 21.3471L0.888029 15.6801C-0.695462 14.5493 0.104518 12.0525 2.05031 12.0525H11.9333C12.796 12.0525 13.5614 11.4993 13.8322 10.6802L16.9092 1.37226Z" fill="#D52A33"/>
</svg>
