<svg width="38" height="36" viewBox="0 0 38 36" fill="none" xmlns="http://www.w3.org/2000/svg">
<path d="M16.9557 1.37226C17.5606 -0.457417 20.1487 -0.457421 20.7536 1.37226L23.8306 10.6802C24.1013 11.4993 24.8668 12.0525 25.7295 12.0525H35.6125C37.5583 12.0525 38.3582 14.5493 36.7748 15.6801L28.839 21.3471C28.1259 21.8563 27.8273 22.7705 28.1024 23.6024L31.1475 32.8141C31.7546 34.6507 29.6604 36.1936 28.0863 35.0694L20.0169 29.307C19.3216 28.8105 18.3877 28.8105 17.6924 29.307L9.623 35.0694C8.04886 36.1936 5.95466 34.6507 6.56179 32.8141L9.60694 23.6024C9.88197 22.7705 9.5834 21.8563 8.8703 21.3471L0.934538 15.6801C-0.648953 14.5493 0.151027 12.0525 2.09682 12.0525H11.9798C12.8425 12.0525 13.6079 11.4993 13.8787 10.6802L16.9557 1.37226Z" fill="#C4C4C4"/>
</svg>
