<svg width="339" height="369" viewBox="0 0 339 369" fill="none" xmlns="http://www.w3.org/2000/svg">
<g clip-path="url(#clip0_104_2008)">
<path opacity="0.15" d="M169.499 369.003C263.11 369.003 338.997 363.755 338.997 357.281C338.997 350.806 263.11 345.558 169.499 345.558C75.8871 345.558 0 350.806 0 357.281C0 363.755 75.8871 369.003 169.499 369.003Z" fill="black"/>
<path d="M264.577 341.27C264.577 343.328 264.173 345.365 263.387 347.266C262.602 349.168 261.451 350.895 259.999 352.35C258.548 353.805 256.825 354.959 254.928 355.746C253.032 356.533 250.999 356.938 248.947 356.938H121.624C119.571 356.938 117.539 356.533 115.643 355.746C113.747 354.959 112.025 353.805 110.574 352.35C109.123 350.895 107.972 349.167 107.187 347.266C106.402 345.365 105.998 343.327 105.999 341.27V97.1642C105.998 95.1064 106.402 93.0686 107.187 91.1671C107.972 89.2657 109.122 87.5379 110.573 86.0824C112.024 84.6269 113.747 83.4722 115.643 82.6843C117.539 81.8964 119.571 81.4906 121.624 81.4902H248.944C253.09 81.491 257.065 83.1427 259.997 86.0821C262.928 89.0214 264.574 93.0077 264.574 97.1642L264.577 341.27Z" fill="url(#paint0_linear_104_2008)"/>
<path d="M254.81 116.117H115.763V318.305H254.81V116.117Z" fill="url(#paint1_linear_104_2008)"/>
<path d="M191.127 100.647C191.127 101.805 190.784 102.937 190.143 103.9C189.501 104.863 188.589 105.614 187.522 106.057C186.455 106.5 185.28 106.616 184.147 106.39C183.015 106.164 181.974 105.606 181.157 104.787C180.34 103.968 179.784 102.925 179.559 101.789C179.333 100.653 179.449 99.4761 179.891 98.4062C180.333 97.3362 181.082 96.4217 182.042 95.7783C183.003 95.1349 184.132 94.7915 185.287 94.7915C186.836 94.7915 188.321 95.4084 189.416 96.5065C190.512 97.6046 191.127 99.094 191.127 100.647V100.647Z" fill="url(#paint2_linear_104_2008)"/>
<path d="M201.823 337.813C201.823 338.66 201.657 339.498 201.334 340.28C201.011 341.062 200.537 341.773 199.94 342.372C199.342 342.97 198.633 343.445 197.853 343.768C197.073 344.092 196.237 344.259 195.392 344.258H175.181C174.337 344.259 173.5 344.092 172.72 343.768C171.94 343.445 171.231 342.97 170.634 342.372C170.036 341.773 169.563 341.062 169.239 340.28C168.916 339.498 168.75 338.66 168.75 337.813V337.813C168.75 336.967 168.916 336.128 169.239 335.346C169.563 334.564 170.036 333.853 170.634 333.255C171.231 332.656 171.94 332.182 172.72 331.858C173.5 331.534 174.337 331.368 175.181 331.368H195.392C196.237 331.368 197.073 331.534 197.853 331.858C198.633 332.182 199.342 332.656 199.94 333.255C200.537 333.853 201.011 334.564 201.334 335.346C201.657 336.128 201.823 336.967 201.823 337.813Z" fill="url(#paint3_linear_104_2008)"/>
<path d="M222.327 224.886C221.232 232.231 217.99 239.085 213.009 244.582C208.029 250.078 201.535 253.971 194.348 255.768C187.161 257.564 179.605 257.184 172.633 254.675C165.662 252.165 159.59 247.64 155.184 241.67C150.778 235.701 148.236 228.556 147.88 221.138C147.525 213.72 149.371 206.364 153.185 199.998C157 193.632 162.611 188.543 169.31 185.375C176.009 182.207 183.494 181.101 190.82 182.198C200.644 183.67 209.483 188.994 215.392 197C221.3 205.005 223.795 215.036 222.327 224.886Z" fill="url(#paint4_linear_104_2008)"/>
<path d="M179.108 234.359C178.696 234.104 178.333 233.775 178.038 233.39L165.569 217.026C164.984 216.183 164.745 215.147 164.903 214.133C165.06 213.118 165.602 212.204 166.415 211.58C167.228 210.955 168.249 210.669 169.267 210.781C170.285 210.893 171.22 211.394 171.879 212.18L181.592 224.923L201.795 204.702C202.541 203.955 203.553 203.537 204.608 203.538C205.663 203.539 206.674 203.961 207.418 204.709C208.163 205.458 208.581 206.473 208.579 207.53C208.578 208.587 208.158 209.601 207.411 210.348L183.999 233.787C183.366 234.422 182.538 234.825 181.649 234.929C180.76 235.034 179.861 234.834 179.099 234.362L179.108 234.359Z" fill="white"/>
<path d="M138.889 357.651L133.014 337.071H134.497C134.975 337.071 135.433 336.881 135.771 336.542C136.109 336.203 136.299 335.744 136.299 335.265V331.377C136.299 330.898 136.109 330.438 135.771 330.1C135.433 329.761 134.975 329.571 134.497 329.571H109.02C108.542 329.571 108.084 329.761 107.746 330.1C107.408 330.438 107.218 330.898 107.218 331.377V335.276C107.218 335.755 107.408 336.215 107.746 336.554C108.084 336.892 108.542 337.083 109.02 337.083H110.609L104.734 357.651C104.626 358.03 104.672 358.436 104.863 358.78C105.053 359.124 105.372 359.378 105.749 359.486L106.831 359.797C107.208 359.905 107.613 359.859 107.956 359.668C108.299 359.477 108.553 359.157 108.661 358.779L114.857 337.083H128.766L134.962 358.779C135.071 359.157 135.325 359.477 135.668 359.668C136.012 359.859 136.417 359.905 136.795 359.797L137.874 359.486C138.251 359.378 138.57 359.124 138.76 358.78C138.951 358.436 138.997 358.03 138.889 357.651V357.651Z" fill="url(#paint5_linear_104_2008)"/>
<path d="M145.504 354.298L141.909 353.605C140.897 345.547 140.436 337.43 140.53 329.309L134.91 329.562L124.297 319.114C124.297 319.114 136.345 317.653 144.698 321.285C146.176 321.93 147.387 323.068 148.124 324.505C148.862 325.943 149.08 327.593 148.742 329.174C147.747 333.862 147.583 338.768 145.504 354.298Z" fill="url(#paint6_linear_104_2008)"/>
<path d="M122.375 294.999L122.306 289.98L117.926 287.032V295.654L122.375 294.999Z" fill="#EDA27C"/>
<path d="M131.741 358.612L131.127 360.579C131.076 360.743 131.064 360.916 131.093 361.085C131.121 361.254 131.188 361.414 131.29 361.552C131.391 361.69 131.523 361.802 131.676 361.88C131.829 361.957 131.997 361.997 132.168 361.997H141.235C141.235 361.997 141.445 360.303 139.336 359.88C137.96 359.589 136.615 359.165 135.321 358.612H131.741Z" fill="url(#paint7_linear_104_2008)"/>
<path d="M141.99 353.401L140.983 355.195C140.899 355.345 140.85 355.512 140.843 355.683C140.835 355.855 140.867 356.026 140.938 356.182C141.008 356.338 141.115 356.476 141.248 356.583C141.381 356.691 141.538 356.765 141.706 356.8L150.572 358.695C150.572 358.695 151.129 357.085 149.155 356.231C147.872 355.659 146.647 354.962 145.498 354.151L141.99 353.401Z" fill="url(#paint8_linear_104_2008)"/>
<path d="M117.608 286.589C117.608 286.589 118.107 290.662 121.101 290.662C124.096 290.662 125.596 290.932 125.596 287.674C125.596 284.415 126.345 281.157 124.349 280.072C122.352 278.988 117.358 278.715 117.608 283.331C117.608 283.331 116.36 282.244 116.36 283.874C116.36 285.505 116.366 287.133 117.608 286.589Z" fill="#F7C4A3"/>
<path d="M117.608 287.403C117.608 287.403 109.863 281.157 115.112 276.814C120.362 272.471 121.85 277.628 126.586 274.096C126.586 274.096 131.081 278.171 125.338 280.886C125.338 280.886 118.224 279.934 118.724 284.28C118.724 284.28 117.975 283.193 116.716 283.466C115.456 283.739 117.238 286.454 117.608 287.403Z" fill="url(#paint9_linear_104_2008)"/>
<path d="M139.884 306.563L135.679 298.056C134.908 296.486 133.775 295.124 132.373 294.083C130.971 293.041 129.341 292.35 127.619 292.068C123.468 291.398 117.897 290.843 113.959 291.781C106.917 293.469 107.68 296.992 107.769 298.358C107.858 299.724 108.736 310.221 108.736 310.221H114.665L114.232 319.999L127.67 320.626L130.745 302.433L133.152 306.172L139.884 306.563Z" fill="url(#paint10_linear_104_2008)"/>
<path d="M127.679 320.635L114.9 317.561V302.079L116.498 316.14L127.877 319.473L127.679 320.635Z" fill="#6858F7"/>
<path d="M110.804 320.966C110.804 320.966 108.69 327.264 112.955 329.574C117.22 331.883 129.305 330.252 129.305 330.252C129.305 330.252 127.854 340.893 131.755 358.612H135.444L136.643 328.438C136.692 327.184 136.344 325.946 135.65 324.903C134.956 323.859 133.95 323.062 132.776 322.625L128.307 320.966H110.804Z" fill="url(#paint11_linear_104_2008)"/>
<path d="M153.312 321.524L158.768 305.309H133.344L128.238 321.547L153.312 321.524Z" fill="url(#paint12_linear_104_2008)"/>
<path d="M108.744 310.23L110.804 320.954C110.804 320.954 121.038 323.192 126.606 322.519C126.606 322.519 131.827 323.307 133.557 321.846C135.286 320.385 130.338 321.745 129.202 321.003C128.066 320.261 114.9 317.552 114.9 317.552L114.673 310.221L108.744 310.23Z" fill="#F7C4A3"/>
<path d="M72.2542 104.676L47.9065 92.1714L68.0977 107.057L56.2222 114.799L47.9065 92.1714L82.3885 99.3181L72.2542 104.676Z" fill="url(#paint13_linear_104_2008)"/>
<path d="M68.0977 107.057L70.4355 114.799L72.2542 104.676L47.9065 92.1714L68.0977 107.057Z" fill="url(#paint14_linear_104_2008)"/>
<path d="M68.0977 107.058L70.4729 114.8L63.4365 110.095L68.0977 107.058Z" fill="url(#paint15_linear_104_2008)"/>
<path d="M74.2019 116.315C74.1295 116.316 74.058 116.3 73.9925 116.269L72.8967 115.76C72.8331 115.735 72.7754 115.697 72.727 115.649C72.6786 115.6 72.6406 115.543 72.6152 115.479C72.5899 115.415 72.5778 115.347 72.5797 115.279C72.5815 115.21 72.5973 115.143 72.6261 115.081C72.6548 115.018 72.6959 114.963 72.7469 114.917C72.7978 114.871 72.8575 114.837 72.9223 114.815C72.9871 114.793 73.0557 114.785 73.1238 114.791C73.1919 114.797 73.2582 114.816 73.3184 114.849L74.4113 115.355C74.5153 115.403 74.5998 115.485 74.6509 115.588C74.702 115.69 74.7164 115.807 74.692 115.92C74.6676 116.032 74.6057 116.132 74.5165 116.204C74.4274 116.276 74.3163 116.315 74.2019 116.315V116.315Z" fill="url(#paint16_linear_104_2008)"/>
<path d="M283.98 155.563C283.846 155.563 283.719 155.51 283.625 155.416C283.53 155.322 283.478 155.194 283.478 155.06C283.478 154.927 283.53 154.799 283.625 154.704C283.719 154.61 283.846 154.557 283.98 154.557C284.771 154.557 285.575 154.539 286.366 154.508C286.499 154.503 286.629 154.551 286.727 154.642C286.824 154.733 286.882 154.859 286.887 154.992C286.892 155.126 286.844 155.256 286.753 155.354C286.662 155.452 286.537 155.509 286.403 155.514C285.6 155.546 284.786 155.56 283.982 155.563H283.98ZM281.576 155.526H281.561C280.753 155.5 279.938 155.457 279.14 155.402C279.007 155.393 278.883 155.331 278.796 155.229C278.709 155.128 278.665 154.997 278.674 154.863C278.684 154.73 278.746 154.605 278.847 154.518C278.948 154.43 279.079 154.386 279.212 154.396C279.995 154.45 280.798 154.493 281.593 154.519C281.726 154.522 281.853 154.577 281.945 154.673C282.038 154.769 282.089 154.898 282.086 155.031C282.084 155.165 282.029 155.292 281.933 155.385C281.838 155.477 281.709 155.528 281.576 155.526ZM288.784 155.385C288.718 155.387 288.653 155.377 288.591 155.354C288.529 155.331 288.472 155.296 288.424 155.251C288.376 155.206 288.336 155.152 288.309 155.092C288.282 155.031 288.266 154.967 288.264 154.9C288.261 154.834 288.272 154.768 288.295 154.706C288.318 154.644 288.353 154.588 288.398 154.539C288.442 154.491 288.496 154.451 288.556 154.424C288.616 154.396 288.681 154.381 288.747 154.378C289.547 154.321 290.345 154.246 291.122 154.16C291.25 154.155 291.374 154.199 291.47 154.283C291.567 154.367 291.628 154.484 291.642 154.611C291.656 154.738 291.621 154.866 291.545 154.968C291.469 155.071 291.357 155.14 291.231 155.164C290.442 155.25 289.63 155.325 288.822 155.382L288.784 155.385ZM276.783 155.192H276.728C275.925 155.106 275.116 155.005 274.324 154.887C274.257 154.88 274.192 154.859 274.133 154.826C274.074 154.793 274.023 154.749 273.981 154.695C273.94 154.641 273.91 154.58 273.893 154.515C273.876 154.449 273.872 154.381 273.882 154.314C273.892 154.247 273.915 154.182 273.95 154.125C273.985 154.067 274.032 154.017 274.087 153.977C274.142 153.938 274.204 153.91 274.27 153.896C274.336 153.881 274.404 153.88 274.471 153.892C275.248 154.005 276.045 154.105 276.834 154.18C276.962 154.194 277.079 154.256 277.163 154.354C277.246 154.452 277.289 154.578 277.282 154.706C277.275 154.835 277.22 154.956 277.127 155.045C277.034 155.133 276.911 155.183 276.783 155.184V155.192ZM293.56 154.853C293.434 154.853 293.312 154.805 293.22 154.718C293.127 154.632 293.07 154.514 293.061 154.387C293.051 154.261 293.09 154.135 293.169 154.036C293.247 153.937 293.361 153.871 293.486 153.852C294.685 153.668 295.388 153.516 295.462 153.498L295.815 153.421C295.88 153.402 295.949 153.398 296.016 153.407C296.084 153.416 296.149 153.439 296.207 153.474C296.265 153.509 296.316 153.555 296.356 153.61C296.396 153.666 296.424 153.728 296.439 153.795C296.454 153.861 296.455 153.93 296.443 153.997C296.431 154.064 296.405 154.128 296.367 154.185C296.329 154.241 296.281 154.29 296.224 154.327C296.167 154.364 296.103 154.39 296.036 154.401L295.68 154.482C295.548 154.511 294.843 154.663 293.638 154.847L293.56 154.853ZM272.027 154.496H271.932C271.137 154.347 270.34 154.18 269.56 154.002C269.438 153.964 269.335 153.881 269.272 153.77C269.209 153.66 269.189 153.529 269.218 153.405C269.247 153.28 269.321 153.171 269.427 153.1C269.532 153.028 269.661 152.999 269.786 153.018C270.552 153.196 271.335 153.36 272.118 153.507C272.247 153.531 272.362 153.605 272.437 153.712C272.512 153.82 272.542 153.953 272.52 154.082C272.499 154.197 272.439 154.3 272.351 154.376C272.263 154.451 272.151 154.494 272.035 154.496H272.027ZM298.256 153.826C298.134 153.827 298.016 153.784 297.923 153.704C297.831 153.624 297.771 153.512 297.754 153.391C297.738 153.27 297.766 153.147 297.833 153.045C297.901 152.942 298.003 152.869 298.121 152.837C298.884 152.627 299.65 152.397 300.416 152.15C300.48 152.123 300.549 152.111 300.619 152.112C300.688 152.114 300.757 152.13 300.82 152.159C300.883 152.189 300.939 152.231 300.985 152.283C301.031 152.335 301.066 152.396 301.087 152.463C301.108 152.529 301.116 152.599 301.109 152.668C301.102 152.737 301.081 152.805 301.047 152.865C301.013 152.926 300.967 152.979 300.912 153.021C300.857 153.063 300.793 153.094 300.726 153.11C299.96 153.357 299.18 153.593 298.402 153.809C298.357 153.821 298.311 153.827 298.265 153.826H298.256ZM267.342 153.415C267.297 153.415 267.252 153.409 267.208 153.398C266.427 153.182 265.647 152.946 264.884 152.699C264.821 152.678 264.763 152.646 264.713 152.602C264.663 152.559 264.622 152.507 264.592 152.448C264.562 152.389 264.544 152.324 264.539 152.258C264.534 152.192 264.542 152.126 264.563 152.063C264.583 152 264.616 151.942 264.659 151.892C264.702 151.842 264.754 151.801 264.813 151.771C264.872 151.741 264.936 151.723 265.002 151.718C265.068 151.713 265.134 151.721 265.197 151.741C265.943 151.983 266.708 152.213 267.477 152.426C267.595 152.457 267.698 152.531 267.765 152.633C267.833 152.735 267.861 152.858 267.844 152.98C267.828 153.101 267.768 153.212 267.675 153.292C267.583 153.373 267.465 153.416 267.342 153.415V153.415ZM302.826 152.339C302.708 152.338 302.595 152.296 302.505 152.22C302.416 152.144 302.355 152.04 302.334 151.924C302.313 151.808 302.333 151.689 302.39 151.586C302.447 151.484 302.538 151.404 302.648 151.362C303.388 151.074 304.131 150.786 304.859 150.476C304.92 150.448 304.986 150.433 305.053 150.432C305.119 150.43 305.186 150.442 305.248 150.466C305.31 150.491 305.367 150.527 305.415 150.574C305.463 150.621 305.501 150.676 305.527 150.738C305.553 150.799 305.567 150.866 305.567 150.933C305.567 150.999 305.554 151.066 305.529 151.128C305.503 151.189 305.465 151.246 305.418 151.293C305.37 151.34 305.314 151.377 305.252 151.402C304.512 151.718 303.755 152.023 303.001 152.305C302.948 152.326 302.891 152.338 302.834 152.339H302.826ZM262.773 151.925C262.712 151.926 262.652 151.915 262.595 151.894C261.838 151.606 261.083 151.301 260.346 150.982C260.229 150.926 260.137 150.826 260.091 150.704C260.045 150.582 260.049 150.447 260.1 150.327C260.152 150.207 260.248 150.112 260.368 150.062C260.489 150.012 260.624 150.011 260.745 150.059C261.468 150.369 262.208 150.671 262.951 150.95C263.061 150.992 263.154 151.07 263.212 151.173C263.27 151.276 263.291 151.396 263.269 151.512C263.248 151.629 263.187 151.734 263.096 151.809C263.005 151.885 262.891 151.926 262.773 151.925ZM307.234 150.45C307.12 150.45 307.009 150.412 306.92 150.341C306.831 150.27 306.768 150.17 306.743 150.059C306.717 149.947 306.731 149.83 306.78 149.727C306.83 149.624 306.913 149.541 307.016 149.492C307.728 149.15 308.451 148.788 309.142 148.414C309.259 148.351 309.397 148.337 309.525 148.376C309.652 148.415 309.759 148.503 309.822 148.621C309.885 148.739 309.898 148.877 309.859 149.004C309.821 149.132 309.733 149.239 309.615 149.302C308.901 149.682 308.181 150.053 307.45 150.401C307.388 150.43 307.322 150.446 307.254 150.45H307.234ZM258.353 150.013C258.275 150.012 258.199 149.995 258.129 149.961C257.403 149.601 256.695 149.219 255.98 148.828C255.923 148.796 255.872 148.752 255.831 148.7C255.79 148.648 255.76 148.589 255.742 148.525C255.724 148.461 255.719 148.395 255.726 148.329C255.734 148.263 255.755 148.2 255.787 148.142C255.819 148.084 255.862 148.033 255.914 147.992C255.966 147.951 256.025 147.921 256.089 147.903C256.152 147.885 256.219 147.879 256.284 147.887C256.35 147.895 256.413 147.915 256.471 147.948C257.156 148.333 257.865 148.704 258.573 149.058C258.633 149.087 258.686 149.127 258.73 149.177C258.773 149.226 258.807 149.284 258.828 149.346C258.85 149.409 258.858 149.475 258.854 149.541C258.85 149.607 258.832 149.672 258.803 149.731C258.763 149.812 258.702 149.881 258.626 149.931C258.551 149.98 258.463 150.009 258.373 150.013H258.353ZM311.474 148.184C311.368 148.178 311.267 148.138 311.184 148.071C311.102 148.004 311.043 147.912 311.016 147.81C310.989 147.707 310.995 147.598 311.034 147.499C311.072 147.399 311.141 147.315 311.23 147.258C311.91 146.855 312.593 146.432 313.258 146.001C313.37 145.928 313.506 145.903 313.636 145.931C313.766 145.959 313.88 146.038 313.952 146.15C314.025 146.262 314.05 146.399 314.022 146.529C313.994 146.66 313.915 146.774 313.803 146.846C313.126 147.286 312.432 147.709 311.741 148.126C311.665 148.166 311.58 148.185 311.494 148.184H311.474ZM254.159 147.663C254.064 147.664 253.971 147.637 253.892 147.585C253.209 147.157 252.53 146.702 251.884 146.237C251.786 146.156 251.722 146.042 251.705 145.916C251.688 145.79 251.718 145.663 251.791 145.559C251.863 145.455 251.972 145.382 252.096 145.355C252.22 145.328 252.349 145.349 252.458 145.414C253.103 145.868 253.769 146.314 254.434 146.734C254.526 146.792 254.597 146.879 254.636 146.981C254.674 147.083 254.679 147.194 254.649 147.299C254.619 147.404 254.556 147.496 254.469 147.562C254.382 147.627 254.276 147.663 254.168 147.663H254.159ZM315.533 145.566C315.427 145.566 315.323 145.532 315.237 145.468C315.152 145.405 315.088 145.316 315.057 145.214C315.025 145.112 315.026 145.003 315.06 144.902C315.094 144.801 315.159 144.713 315.246 144.652C315.891 144.192 316.537 143.714 317.162 143.231C317.268 143.15 317.402 143.113 317.534 143.131C317.666 143.148 317.786 143.217 317.868 143.323C317.949 143.429 317.985 143.563 317.968 143.696C317.951 143.829 317.882 143.949 317.776 144.031C317.139 144.523 316.482 145.009 315.825 145.469C315.74 145.53 315.638 145.565 315.533 145.566V145.566ZM250.255 144.891C250.142 144.89 250.033 144.851 249.945 144.781C249.314 144.281 248.686 143.757 248.078 143.223C247.978 143.134 247.917 143.01 247.908 142.877C247.899 142.744 247.944 142.613 248.032 142.512C248.12 142.412 248.244 142.351 248.377 142.342C248.509 142.333 248.64 142.378 248.74 142.466C249.334 142.99 249.948 143.502 250.568 143.99C250.65 144.055 250.711 144.144 250.74 144.245C250.77 144.346 250.767 144.454 250.733 144.553C250.698 144.652 250.634 144.738 250.548 144.799C250.462 144.859 250.36 144.891 250.255 144.891V144.891ZM246.646 141.727C246.515 141.727 246.39 141.675 246.296 141.583C245.918 141.212 245.542 140.833 245.178 140.45C244.985 140.249 244.793 140.045 244.604 139.838C244.559 139.789 244.524 139.732 244.501 139.67C244.478 139.608 244.468 139.542 244.471 139.476C244.473 139.41 244.489 139.345 244.516 139.285C244.544 139.225 244.583 139.171 244.631 139.126C244.68 139.081 244.736 139.046 244.798 139.023C244.86 139 244.926 138.989 244.992 138.992C245.058 138.995 245.123 139.01 245.182 139.038C245.242 139.065 245.296 139.105 245.341 139.153C245.528 139.357 245.717 139.556 245.915 139.754C246.273 140.128 246.641 140.502 247.011 140.861C247.082 140.931 247.131 141.021 247.151 141.119C247.171 141.217 247.162 141.319 247.124 141.412C247.086 141.504 247.021 141.584 246.938 141.639C246.855 141.695 246.758 141.724 246.658 141.724L246.646 141.727ZM181.024 141.474C180.218 141.474 179.418 141.474 178.617 141.451C178.484 141.451 178.357 141.398 178.262 141.304C178.168 141.209 178.115 141.081 178.115 140.948C178.115 140.814 178.168 140.686 178.262 140.592C178.357 140.497 178.484 140.444 178.617 140.444V140.444C179.415 140.456 180.213 140.464 181.013 140.467C181.146 140.467 181.273 140.52 181.368 140.615C181.462 140.709 181.515 140.837 181.515 140.971C181.515 141.104 181.462 141.232 181.368 141.327C181.273 141.421 181.146 141.474 181.013 141.474H181.024ZM183.422 141.474C183.289 141.474 183.161 141.421 183.067 141.327C182.973 141.232 182.92 141.104 182.92 140.971C182.92 140.837 182.973 140.709 183.067 140.615C183.161 140.52 183.289 140.467 183.422 140.467C184.222 140.467 185.026 140.453 185.817 140.439C185.883 140.437 185.949 140.449 186.01 140.473C186.072 140.497 186.128 140.533 186.175 140.579C186.223 140.625 186.261 140.679 186.287 140.74C186.314 140.801 186.328 140.866 186.329 140.932C186.331 140.998 186.319 141.064 186.295 141.125C186.271 141.187 186.235 141.243 186.189 141.291C186.144 141.338 186.089 141.377 186.029 141.403C185.968 141.43 185.903 141.444 185.837 141.445C185.04 141.445 184.231 141.468 183.431 141.474H183.422ZM176.219 141.402H176.205C175.402 141.383 174.6 141.358 173.798 141.327C173.732 141.325 173.668 141.309 173.608 141.281C173.548 141.254 173.494 141.214 173.449 141.166C173.404 141.117 173.37 141.06 173.347 140.998C173.324 140.936 173.314 140.87 173.316 140.804C173.318 140.738 173.333 140.672 173.36 140.612C173.387 140.552 173.426 140.497 173.474 140.452C173.523 140.407 173.579 140.372 173.642 140.35C173.704 140.327 173.77 140.317 173.836 140.321C174.633 140.349 175.431 140.375 176.234 140.396C176.367 140.396 176.495 140.449 176.589 140.543C176.683 140.637 176.736 140.765 176.736 140.899C176.736 141.032 176.683 141.16 176.589 141.255C176.495 141.349 176.367 141.402 176.234 141.402H176.219ZM188.224 141.388C188.158 141.389 188.093 141.377 188.031 141.352C187.97 141.328 187.914 141.291 187.867 141.245C187.82 141.199 187.782 141.144 187.756 141.084C187.73 141.023 187.716 140.958 187.715 140.892C187.714 140.826 187.726 140.76 187.75 140.698C187.775 140.637 187.811 140.581 187.857 140.534C187.903 140.486 187.958 140.448 188.018 140.422C188.079 140.396 188.144 140.382 188.21 140.381C189.007 140.358 189.805 140.33 190.605 140.298C190.671 140.295 190.737 140.305 190.798 140.328C190.86 140.351 190.917 140.386 190.966 140.431C191.014 140.476 191.053 140.53 191.081 140.59C191.109 140.65 191.124 140.715 191.127 140.781C191.13 140.847 191.119 140.913 191.096 140.975C191.074 141.037 191.039 141.094 190.994 141.143C190.949 141.191 190.895 141.231 190.836 141.258C190.776 141.286 190.711 141.302 190.645 141.304C189.842 141.339 189.039 141.365 188.238 141.388H188.224ZM171.418 141.224H171.392C170.589 141.187 169.787 141.144 168.988 141.094C168.92 141.094 168.853 141.079 168.79 141.052C168.728 141.025 168.672 140.985 168.626 140.935C168.579 140.885 168.543 140.827 168.52 140.763C168.497 140.699 168.487 140.63 168.491 140.562C168.495 140.494 168.512 140.428 168.543 140.367C168.573 140.306 168.615 140.251 168.667 140.207C168.719 140.163 168.779 140.13 168.844 140.11C168.909 140.09 168.978 140.083 169.045 140.091C169.843 140.137 170.641 140.179 171.44 140.217C171.574 140.22 171.7 140.276 171.792 140.373C171.884 140.469 171.934 140.599 171.931 140.732C171.928 140.865 171.872 140.992 171.776 141.085C171.68 141.177 171.551 141.227 171.418 141.224V141.224ZM193.023 141.195C192.89 141.198 192.761 141.149 192.664 141.057C192.568 140.965 192.511 140.838 192.508 140.705C192.505 140.571 192.554 140.442 192.646 140.345C192.738 140.248 192.864 140.192 192.997 140.188C193.792 140.148 194.595 140.102 195.387 140.05C195.52 140.042 195.651 140.087 195.751 140.175C195.851 140.264 195.912 140.389 195.92 140.522C195.928 140.656 195.884 140.787 195.795 140.887C195.707 140.988 195.583 141.049 195.45 141.057C194.655 141.106 193.846 141.152 193.049 141.195H193.023ZM166.619 140.942H166.584C165.781 140.884 164.981 140.824 164.183 140.761C164.118 140.755 164.053 140.737 163.995 140.707C163.936 140.677 163.884 140.636 163.841 140.585C163.798 140.535 163.766 140.477 163.746 140.414C163.725 140.351 163.718 140.285 163.723 140.219C163.728 140.153 163.746 140.089 163.776 140.03C163.806 139.971 163.848 139.918 163.898 139.876C163.948 139.833 164.006 139.8 164.069 139.78C164.132 139.759 164.198 139.752 164.264 139.757C165.055 139.82 165.852 139.88 166.653 139.935C166.786 139.94 166.912 139.997 167.003 140.095C167.094 140.193 167.142 140.322 167.138 140.456C167.133 140.589 167.076 140.716 166.979 140.807C166.881 140.898 166.752 140.947 166.619 140.942V140.942ZM197.813 140.893C197.68 140.898 197.551 140.849 197.453 140.758C197.356 140.667 197.299 140.54 197.294 140.407C197.29 140.274 197.338 140.144 197.429 140.046C197.52 139.948 197.646 139.891 197.779 139.886C198.571 139.826 199.374 139.763 200.165 139.694C200.298 139.682 200.43 139.724 200.532 139.81C200.634 139.896 200.698 140.019 200.709 140.152C200.72 140.286 200.679 140.418 200.593 140.52C200.507 140.622 200.384 140.686 200.252 140.697C199.457 140.767 198.648 140.833 197.853 140.89L197.813 140.893ZM161.828 140.559H161.782C160.979 140.488 160.182 140.41 159.384 140.329C159.317 140.325 159.251 140.307 159.191 140.277C159.13 140.247 159.077 140.204 159.033 140.153C158.989 140.101 158.957 140.041 158.937 139.977C158.916 139.912 158.91 139.844 158.916 139.777C158.923 139.709 158.943 139.644 158.976 139.585C159.008 139.525 159.052 139.473 159.105 139.431C159.158 139.39 159.219 139.359 159.285 139.341C159.35 139.324 159.418 139.319 159.485 139.329C160.279 139.406 161.074 139.484 161.874 139.556C161.94 139.559 162.005 139.575 162.064 139.603C162.124 139.631 162.178 139.671 162.222 139.719C162.267 139.768 162.301 139.825 162.324 139.888C162.346 139.95 162.356 140.016 162.353 140.082C162.35 140.148 162.334 140.213 162.306 140.273C162.278 140.333 162.239 140.387 162.19 140.431C162.141 140.476 162.084 140.51 162.022 140.533C161.96 140.555 161.894 140.565 161.828 140.562V140.559ZM202.598 140.479C202.47 140.478 202.347 140.427 202.255 140.338C202.162 140.249 202.107 140.128 202.101 140C202.095 139.872 202.138 139.746 202.221 139.648C202.304 139.551 202.422 139.489 202.549 139.475C203.344 139.398 204.144 139.314 204.933 139.228C204.998 139.221 205.065 139.227 205.128 139.245C205.191 139.264 205.25 139.294 205.302 139.336C205.353 139.377 205.396 139.428 205.428 139.486C205.459 139.544 205.479 139.608 205.487 139.674C205.494 139.739 205.488 139.806 205.469 139.869C205.451 139.933 205.42 139.992 205.379 140.043C205.338 140.095 205.287 140.138 205.229 140.17C205.171 140.201 205.107 140.222 205.042 140.229C204.25 140.315 203.444 140.398 202.647 140.476L202.598 140.479ZM157.046 140.076H156.989C156.189 139.984 155.391 139.892 154.597 139.789C154.47 139.767 154.357 139.697 154.28 139.593C154.203 139.489 154.169 139.36 154.184 139.232C154.2 139.104 154.264 138.987 154.363 138.905C154.462 138.823 154.589 138.782 154.717 138.791C155.509 138.887 156.303 138.982 157.101 139.078C157.225 139.097 157.339 139.161 157.418 139.259C157.498 139.356 157.538 139.481 157.532 139.607C157.525 139.733 157.471 139.851 157.381 139.94C157.292 140.028 157.172 140.08 157.046 140.085V140.076ZM207.371 139.955C207.242 139.957 207.117 139.909 207.022 139.821C206.928 139.733 206.871 139.612 206.863 139.482C206.855 139.353 206.897 139.226 206.981 139.127C207.064 139.028 207.182 138.965 207.311 138.952C208.097 138.857 208.897 138.756 209.686 138.65C209.751 138.641 209.818 138.645 209.881 138.662C209.945 138.68 210.005 138.709 210.057 138.749C210.11 138.789 210.153 138.839 210.186 138.897C210.219 138.954 210.241 139.017 210.25 139.083C210.258 139.148 210.254 139.215 210.237 139.279C210.22 139.342 210.191 139.402 210.15 139.455C210.11 139.507 210.06 139.551 210.003 139.584C209.946 139.618 209.883 139.639 209.818 139.648C209.026 139.754 208.223 139.858 207.431 139.953L207.371 139.955ZM152.273 139.492H152.207C151.41 139.385 150.615 139.276 149.824 139.165C149.692 139.146 149.572 139.075 149.492 138.969C149.412 138.862 149.378 138.727 149.396 138.595C149.415 138.463 149.485 138.343 149.592 138.263C149.698 138.183 149.832 138.148 149.964 138.167C150.754 138.278 151.546 138.387 152.339 138.494C152.464 138.513 152.576 138.578 152.655 138.677C152.734 138.775 152.773 138.899 152.765 139.025C152.757 139.151 152.702 139.269 152.611 139.356C152.519 139.443 152.399 139.493 152.273 139.495V139.492ZM212.13 139.323C211.999 139.329 211.871 139.284 211.773 139.196C211.675 139.109 211.615 138.987 211.606 138.856C211.596 138.725 211.638 138.596 211.723 138.495C211.807 138.395 211.928 138.332 212.058 138.319C212.841 138.207 213.639 138.086 214.428 137.962C214.559 137.942 214.694 137.975 214.801 138.053C214.909 138.132 214.981 138.25 215.001 138.382C215.022 138.514 214.989 138.649 214.911 138.757C214.832 138.865 214.714 138.937 214.582 138.958C213.791 139.081 212.99 139.202 212.202 139.317L212.13 139.323ZM147.514 138.817H147.44C146.642 138.693 145.851 138.569 145.062 138.44C144.93 138.418 144.813 138.346 144.735 138.237C144.657 138.129 144.625 137.994 144.646 137.862C144.667 137.73 144.74 137.612 144.848 137.534C144.956 137.455 145.091 137.423 145.223 137.445C146.009 137.575 146.798 137.7 147.592 137.819C147.715 137.841 147.824 137.909 147.9 138.008C147.976 138.107 148.013 138.231 148.004 138.355C147.994 138.48 147.939 138.597 147.848 138.683C147.758 138.769 147.639 138.819 147.514 138.822V138.817ZM216.874 138.575C216.747 138.577 216.624 138.53 216.529 138.445C216.435 138.359 216.377 138.241 216.366 138.114C216.356 137.986 216.394 137.86 216.473 137.76C216.551 137.66 216.665 137.593 216.791 137.574C217.577 137.442 218.369 137.304 219.149 137.16C219.214 137.148 219.281 137.15 219.345 137.164C219.41 137.178 219.471 137.205 219.525 137.242C219.579 137.28 219.625 137.328 219.661 137.384C219.697 137.44 219.721 137.502 219.733 137.567C219.744 137.632 219.743 137.699 219.729 137.764C219.715 137.828 219.688 137.89 219.651 137.944C219.613 137.998 219.565 138.045 219.51 138.08C219.454 138.116 219.392 138.141 219.327 138.152C218.544 138.293 217.746 138.44 216.958 138.569L216.874 138.575ZM243.388 138.19C243.315 138.19 243.242 138.174 243.176 138.143C243.109 138.113 243.05 138.067 243.003 138.011C242.493 137.399 241.982 136.76 241.489 136.11C241.419 136.003 241.393 135.874 241.414 135.748C241.436 135.622 241.504 135.509 241.606 135.432C241.707 135.354 241.833 135.318 241.96 135.33C242.087 135.343 242.204 135.402 242.289 135.498C242.774 136.136 243.273 136.763 243.772 137.364C243.815 137.415 243.847 137.474 243.867 137.537C243.886 137.6 243.894 137.667 243.888 137.733C243.882 137.799 243.863 137.863 243.832 137.921C243.802 137.98 243.76 138.032 243.709 138.075C243.616 138.144 243.501 138.179 243.385 138.172L243.388 138.19ZM142.77 138.043H142.684C141.892 137.908 141.101 137.755 140.315 137.623C140.25 137.611 140.188 137.587 140.132 137.551C140.077 137.515 140.029 137.468 139.991 137.414C139.954 137.359 139.927 137.298 139.913 137.233C139.899 137.168 139.898 137.102 139.91 137.036C139.922 136.971 139.947 136.909 139.982 136.853C140.018 136.798 140.065 136.75 140.119 136.712C140.173 136.674 140.235 136.648 140.299 136.634C140.364 136.62 140.43 136.619 140.495 136.631C141.277 136.775 142.064 136.915 142.856 137.051C142.982 137.07 143.096 137.136 143.175 137.237C143.254 137.337 143.292 137.464 143.281 137.592C143.27 137.719 143.211 137.838 143.116 137.923C143.021 138.008 142.898 138.054 142.77 138.052V138.043ZM221.596 137.718C221.471 137.719 221.35 137.672 221.257 137.588C221.164 137.503 221.106 137.387 221.094 137.262C221.082 137.137 221.117 137.012 221.193 136.912C221.268 136.812 221.378 136.743 221.501 136.72C222.279 136.568 223.07 136.409 223.85 136.248C223.915 136.235 223.982 136.234 224.046 136.247C224.111 136.259 224.173 136.284 224.228 136.321C224.283 136.357 224.331 136.404 224.368 136.459C224.405 136.513 224.431 136.575 224.444 136.639C224.458 136.704 224.458 136.771 224.446 136.836C224.433 136.901 224.408 136.963 224.372 137.018C224.336 137.073 224.289 137.121 224.235 137.158C224.18 137.195 224.119 137.221 224.054 137.235C223.268 137.399 222.474 137.557 221.693 137.709C221.66 137.709 221.626 137.707 221.593 137.701L221.596 137.718ZM138.043 137.177H137.948C137.156 137.024 136.369 136.868 135.584 136.709C135.52 136.695 135.458 136.669 135.404 136.632C135.349 136.595 135.302 136.548 135.266 136.493C135.23 136.438 135.204 136.376 135.192 136.311C135.179 136.246 135.18 136.179 135.193 136.115C135.206 136.05 135.232 135.988 135.269 135.934C135.306 135.879 135.353 135.832 135.408 135.795C135.463 135.759 135.525 135.734 135.589 135.721C135.654 135.709 135.721 135.709 135.785 135.722C136.566 135.879 137.35 136.035 138.137 136.188C138.261 136.211 138.371 136.28 138.446 136.38C138.521 136.48 138.556 136.605 138.545 136.73C138.533 136.855 138.475 136.971 138.382 137.056C138.289 137.14 138.168 137.186 138.043 137.186V137.177ZM226.3 136.749C226.178 136.746 226.06 136.699 225.97 136.616C225.879 136.533 225.822 136.42 225.808 136.298C225.795 136.176 225.827 136.053 225.897 135.952C225.967 135.851 226.072 135.78 226.191 135.751C226.969 135.581 227.754 135.406 228.529 135.227C228.659 135.197 228.795 135.22 228.908 135.291C229.021 135.361 229.101 135.474 229.131 135.604C229.161 135.734 229.139 135.871 229.068 135.984C228.998 136.097 228.885 136.178 228.756 136.208C227.978 136.386 227.187 136.565 226.406 136.734C226.37 136.738 226.333 136.737 226.297 136.732L226.3 136.749ZM133.333 136.222C133.297 136.225 133.262 136.225 133.227 136.222C132.438 136.056 131.655 135.883 130.874 135.711C130.744 135.682 130.631 135.602 130.56 135.489C130.488 135.377 130.464 135.24 130.493 135.109C130.522 134.979 130.601 134.865 130.714 134.794C130.826 134.722 130.962 134.698 131.092 134.727C131.867 134.9 132.65 135.069 133.436 135.236C133.56 135.259 133.671 135.328 133.746 135.43C133.822 135.531 133.856 135.657 133.843 135.783C133.83 135.909 133.771 136.025 133.676 136.108C133.581 136.192 133.459 136.237 133.333 136.234V136.222ZM230.976 135.667C230.851 135.67 230.73 135.626 230.635 135.544C230.541 135.462 230.481 135.348 230.466 135.223C230.451 135.099 230.483 134.974 230.556 134.872C230.628 134.77 230.736 134.699 230.858 134.672C231.636 134.483 232.416 134.287 233.182 134.097C233.246 134.08 233.313 134.076 233.378 134.085C233.444 134.094 233.507 134.116 233.564 134.149C233.622 134.183 233.672 134.227 233.712 134.28C233.752 134.334 233.781 134.394 233.797 134.458C233.814 134.523 233.817 134.59 233.808 134.656C233.798 134.721 233.776 134.785 233.742 134.842C233.708 134.899 233.663 134.948 233.609 134.988C233.556 135.028 233.496 135.056 233.431 135.072C232.662 135.271 231.876 135.466 231.096 135.647C231.055 135.653 231.014 135.654 230.973 135.65L230.976 135.667ZM128.64 135.176C128.602 135.18 128.563 135.18 128.525 135.176C127.739 134.992 126.959 134.808 126.182 134.618C126.057 134.582 125.95 134.5 125.885 134.388C125.819 134.275 125.799 134.142 125.83 134.015C125.86 133.889 125.938 133.779 126.048 133.709C126.157 133.639 126.29 133.614 126.417 133.64L128.752 134.195C128.87 134.224 128.975 134.295 129.044 134.396C129.114 134.496 129.145 134.619 129.132 134.74C129.118 134.862 129.06 134.975 128.97 135.057C128.879 135.139 128.762 135.185 128.64 135.187V135.176ZM235.634 134.474C235.513 134.472 235.397 134.427 235.306 134.346C235.216 134.265 235.158 134.154 235.143 134.033C235.128 133.913 235.157 133.791 235.224 133.69C235.292 133.589 235.394 133.516 235.511 133.485C236.234 133.301 237.011 133.128 237.889 132.964C237.954 132.952 238.02 132.952 238.085 132.966C238.149 132.979 238.211 133.006 238.265 133.043C238.319 133.08 238.366 133.128 238.402 133.183C238.438 133.238 238.463 133.3 238.475 133.365C238.488 133.43 238.487 133.497 238.474 133.562C238.46 133.626 238.434 133.688 238.397 133.742C238.36 133.797 238.312 133.844 238.257 133.88C238.202 133.916 238.14 133.941 238.075 133.953C237.215 134.114 236.46 134.281 235.758 134.46C235.715 134.465 235.671 134.464 235.628 134.457L235.634 134.474ZM240.476 134.359C240.395 134.359 240.315 134.34 240.243 134.302C240.171 134.264 240.109 134.21 240.063 134.143C239.607 133.487 239.154 132.809 238.718 132.13C238.68 132.074 238.653 132.012 238.64 131.945C238.627 131.879 238.627 131.811 238.64 131.745C238.654 131.679 238.68 131.616 238.719 131.561C238.757 131.505 238.806 131.458 238.862 131.421C238.919 131.385 238.983 131.361 239.049 131.349C239.115 131.338 239.183 131.341 239.249 131.356C239.314 131.372 239.376 131.401 239.43 131.441C239.484 131.481 239.53 131.531 239.564 131.589C239.776 131.923 239.994 132.254 240.212 132.582L240.278 132.567C241.11 132.441 241.951 132.32 242.665 132.222C242.797 132.204 242.931 132.239 243.037 132.319C243.143 132.4 243.213 132.52 243.231 132.652C243.25 132.784 243.215 132.919 243.134 133.025C243.054 133.132 242.935 133.202 242.803 133.22C242.209 133.303 241.529 133.398 240.835 133.508L240.889 133.582C240.965 133.692 240.994 133.828 240.97 133.959C240.947 134.091 240.872 134.207 240.763 134.284C240.674 134.333 240.572 134.353 240.471 134.342L240.476 134.359ZM123.964 134.028C123.923 134.028 123.881 134.022 123.841 134.011C123.058 133.815 122.28 133.614 121.509 133.413C121.38 133.379 121.27 133.296 121.202 133.18C121.134 133.065 121.115 132.928 121.149 132.799C121.182 132.669 121.266 132.559 121.381 132.491C121.495 132.423 121.632 132.404 121.761 132.438L124.085 133.036C124.204 133.065 124.309 133.137 124.378 133.239C124.448 133.34 124.479 133.463 124.464 133.586C124.449 133.708 124.39 133.821 124.298 133.902C124.206 133.984 124.087 134.028 123.964 134.028V134.028ZM245.109 132.878C244.979 132.883 244.851 132.836 244.755 132.749C244.658 132.662 244.598 132.54 244.589 132.409C244.581 132.279 244.623 132.15 244.707 132.05C244.791 131.95 244.91 131.887 245.04 131.874C245.966 131.745 246.721 131.635 247.409 131.526C247.537 131.515 247.664 131.553 247.764 131.632C247.865 131.711 247.932 131.826 247.952 131.953C247.971 132.079 247.942 132.209 247.87 132.315C247.798 132.421 247.689 132.496 247.564 132.524C246.87 132.63 246.11 132.743 245.178 132.872L245.109 132.878ZM119.312 132.817C119.267 132.817 119.223 132.811 119.18 132.8C118.402 132.59 117.628 132.374 116.859 132.159C116.796 132.14 116.736 132.109 116.685 132.067C116.634 132.025 116.591 131.973 116.559 131.915C116.528 131.857 116.508 131.793 116.501 131.727C116.494 131.661 116.5 131.594 116.519 131.53C116.538 131.467 116.569 131.407 116.611 131.356C116.653 131.304 116.704 131.261 116.762 131.23C116.82 131.198 116.884 131.178 116.95 131.171C117.016 131.165 117.082 131.171 117.146 131.19C117.912 131.405 118.681 131.618 119.458 131.828C119.576 131.86 119.678 131.933 119.745 132.035C119.813 132.137 119.841 132.26 119.825 132.381C119.809 132.502 119.749 132.613 119.658 132.693C119.566 132.774 119.448 132.818 119.326 132.817H119.312ZM249.859 132.13C249.734 132.13 249.614 132.083 249.521 131.998C249.429 131.914 249.371 131.798 249.36 131.673C249.348 131.548 249.384 131.423 249.459 131.323C249.534 131.223 249.644 131.155 249.767 131.132C250.599 130.98 251.365 130.824 252.105 130.657C252.235 130.628 252.372 130.652 252.484 130.723C252.597 130.795 252.677 130.908 252.706 131.039C252.735 131.169 252.712 131.306 252.64 131.419C252.569 131.532 252.456 131.612 252.326 131.641C251.571 131.811 250.794 131.966 249.948 132.121C249.918 132.124 249.889 132.124 249.859 132.121V132.13ZM114.685 131.517C114.637 131.518 114.59 131.511 114.544 131.497C113.77 131.273 112.998 131.046 112.235 130.816C112.107 130.778 112 130.69 111.936 130.572C111.873 130.455 111.859 130.317 111.897 130.189C111.935 130.061 112.022 129.953 112.139 129.889C112.256 129.826 112.394 129.811 112.522 129.849C113.287 130.079 114.052 130.307 114.817 130.531C114.932 130.565 115.032 130.639 115.098 130.741C115.163 130.842 115.19 130.964 115.173 131.084C115.157 131.204 115.097 131.313 115.007 131.393C114.916 131.473 114.8 131.517 114.679 131.517H114.685ZM254.546 131.066C254.426 131.065 254.31 131.02 254.22 130.94C254.129 130.86 254.071 130.751 254.054 130.631C254.038 130.511 254.065 130.39 254.131 130.289C254.196 130.187 254.296 130.113 254.411 130.079C255.197 129.858 255.957 129.616 256.672 129.363C256.797 129.319 256.935 129.326 257.056 129.383C257.176 129.441 257.268 129.544 257.313 129.67C257.357 129.795 257.35 129.934 257.293 130.054C257.235 130.175 257.133 130.268 257.007 130.312C256.27 130.574 255.49 130.821 254.681 131.049C254.637 131.057 254.591 131.06 254.546 131.057V131.066ZM237.883 130.289C237.795 130.29 237.709 130.266 237.633 130.223C237.557 130.179 237.494 130.115 237.45 130.039C237.043 129.343 236.647 128.627 236.268 127.917C236.205 127.799 236.192 127.661 236.231 127.533C236.269 127.405 236.357 127.298 236.475 127.235C236.592 127.172 236.73 127.159 236.857 127.197C236.985 127.236 237.092 127.324 237.155 127.442C237.527 128.144 237.918 128.846 238.302 129.53C238.346 129.607 238.369 129.694 238.37 129.782C238.37 129.871 238.347 129.958 238.303 130.035C238.259 130.111 238.196 130.175 238.12 130.22C238.044 130.265 237.957 130.289 237.869 130.289H237.883ZM110.078 130.134C110.028 130.134 109.977 130.128 109.929 130.114C109.157 129.872 108.391 129.634 107.634 129.389C107.568 129.372 107.506 129.342 107.452 129.3C107.398 129.258 107.353 129.205 107.32 129.145C107.287 129.085 107.267 129.019 107.26 128.951C107.253 128.883 107.261 128.814 107.281 128.749C107.302 128.684 107.336 128.624 107.38 128.572C107.425 128.52 107.48 128.478 107.541 128.449C107.603 128.419 107.67 128.402 107.738 128.399C107.806 128.396 107.874 128.407 107.938 128.432C108.703 128.673 109.468 128.913 110.233 129.15C110.347 129.186 110.445 129.262 110.509 129.364C110.572 129.466 110.597 129.588 110.579 129.706C110.561 129.825 110.501 129.934 110.41 130.012C110.319 130.091 110.204 130.134 110.084 130.134H110.078ZM259.07 129.45C258.954 129.45 258.842 129.411 258.752 129.339C258.662 129.266 258.6 129.165 258.576 129.052C258.551 128.939 258.567 128.821 258.619 128.718C258.672 128.615 258.758 128.533 258.863 128.486C259.595 128.155 260.297 127.796 260.957 127.416C261.014 127.373 261.079 127.342 261.148 127.326C261.217 127.31 261.289 127.309 261.359 127.323C261.429 127.336 261.495 127.365 261.553 127.406C261.611 127.448 261.66 127.501 261.695 127.563C261.731 127.624 261.754 127.693 261.761 127.764C261.768 127.835 261.761 127.907 261.738 127.974C261.716 128.042 261.68 128.104 261.632 128.157C261.583 128.209 261.525 128.251 261.459 128.279C260.771 128.673 260.025 129.05 259.276 129.392C259.212 129.423 259.141 129.44 259.07 129.441V129.45ZM105.5 128.673C105.446 128.673 105.393 128.664 105.342 128.647C104.573 128.394 103.813 128.141 103.047 127.885C102.985 127.864 102.927 127.831 102.877 127.787C102.828 127.744 102.787 127.691 102.758 127.631C102.728 127.572 102.711 127.508 102.707 127.442C102.702 127.376 102.711 127.309 102.732 127.247C102.753 127.184 102.786 127.126 102.83 127.076C102.873 127.026 102.926 126.986 102.985 126.956C103.044 126.927 103.108 126.909 103.174 126.905C103.24 126.901 103.306 126.909 103.369 126.93C104.123 127.186 104.88 127.439 105.646 127.69C105.761 127.726 105.859 127.802 105.923 127.904C105.986 128.007 106.011 128.129 105.992 128.248C105.973 128.368 105.912 128.476 105.82 128.554C105.728 128.632 105.612 128.674 105.491 128.673H105.5ZM100.945 127.126C100.888 127.126 100.832 127.116 100.778 127.097C100.013 126.832 99.2561 126.566 98.5065 126.298C98.3809 126.253 98.2784 126.159 98.2214 126.039C98.1644 125.918 98.1576 125.779 98.2025 125.653C98.2473 125.527 98.3402 125.425 98.4607 125.367C98.5812 125.31 98.7195 125.303 98.845 125.348C99.5908 125.617 100.345 125.882 101.108 126.145C101.222 126.183 101.318 126.26 101.38 126.363C101.441 126.466 101.464 126.587 101.444 126.706C101.425 126.824 101.364 126.931 101.272 127.008C101.18 127.085 101.064 127.127 100.945 127.126V127.126ZM263.22 127.04C263.115 127.037 263.014 127.002 262.93 126.939C262.846 126.876 262.784 126.788 262.752 126.688C262.72 126.588 262.721 126.48 262.754 126.38C262.786 126.28 262.849 126.193 262.934 126.131C263.562 125.668 264.161 125.168 264.729 124.632C264.777 124.587 264.834 124.552 264.895 124.528C264.957 124.505 265.023 124.494 265.089 124.496C265.155 124.498 265.22 124.513 265.28 124.54C265.34 124.567 265.394 124.606 265.439 124.654C265.484 124.702 265.52 124.759 265.543 124.821C265.566 124.882 265.577 124.948 265.575 125.014C265.573 125.08 265.558 125.145 265.531 125.206C265.504 125.266 265.466 125.32 265.418 125.366C264.82 125.929 264.189 126.456 263.527 126.942C263.438 127.006 263.33 127.04 263.22 127.037V127.04ZM235.623 126.03C235.528 126.03 235.435 126.003 235.354 125.953C235.274 125.902 235.21 125.829 235.17 125.742C234.817 125.018 234.475 124.273 234.154 123.537C234.128 123.476 234.114 123.411 234.112 123.345C234.111 123.279 234.123 123.213 234.147 123.151C234.196 123.027 234.292 122.927 234.414 122.874C234.536 122.82 234.674 122.818 234.798 122.867C234.922 122.915 235.022 123.012 235.075 123.134C235.39 123.859 235.726 124.589 236.073 125.305C236.131 125.426 236.138 125.564 236.095 125.69C236.051 125.816 235.96 125.919 235.841 125.978C235.772 126.01 235.698 126.026 235.623 126.027V126.03ZM96.4154 125.51C96.3567 125.509 96.2984 125.498 96.2433 125.478C95.4783 125.2 94.7258 124.92 93.9857 124.638C93.924 124.615 93.8673 124.58 93.8191 124.535C93.7709 124.489 93.7321 124.435 93.7048 124.375C93.6775 124.315 93.6623 124.25 93.66 124.184C93.6578 124.117 93.6686 124.052 93.6917 123.99C93.7149 123.928 93.75 123.871 93.795 123.823C93.8401 123.774 93.8942 123.735 93.9543 123.708C94.0144 123.681 94.0792 123.665 94.1451 123.663C94.2111 123.661 94.2768 123.672 94.3386 123.695C95.0786 123.982 95.8302 124.253 96.5875 124.532C96.6995 124.571 96.794 124.65 96.8539 124.753C96.9138 124.855 96.9353 124.976 96.9147 125.094C96.894 125.211 96.8325 125.317 96.7411 125.393C96.6496 125.47 96.5343 125.511 96.4154 125.51V125.51ZM91.9147 123.816C91.8529 123.815 91.7916 123.804 91.734 123.781C90.9767 123.493 90.2281 123.206 89.4909 122.904C89.4256 122.883 89.3653 122.849 89.3137 122.803C89.2622 122.758 89.2205 122.702 89.1911 122.64C89.1618 122.578 89.1454 122.51 89.1431 122.442C89.1409 122.373 89.1527 122.304 89.1778 122.24C89.203 122.176 89.2409 122.118 89.2893 122.07C89.3377 122.021 89.3956 121.983 89.4593 121.957C89.5231 121.932 89.5913 121.92 89.6599 121.922C89.7285 121.924 89.7959 121.94 89.858 121.969C90.5943 122.259 91.3401 122.546 92.0955 122.832C92.2032 122.876 92.2924 122.956 92.3482 123.058C92.404 123.16 92.4228 123.279 92.4016 123.393C92.3803 123.508 92.3203 123.612 92.2316 123.687C92.1429 123.762 92.0309 123.805 91.9147 123.807V123.816ZM266.706 123.747C266.589 123.747 266.476 123.706 266.387 123.632C266.336 123.59 266.294 123.538 266.262 123.479C266.231 123.421 266.212 123.357 266.205 123.291C266.199 123.225 266.206 123.158 266.225 123.095C266.245 123.031 266.276 122.972 266.318 122.921C266.496 122.708 266.671 122.484 266.84 122.257C267.127 121.866 267.414 121.452 267.701 121.023C267.774 120.911 267.888 120.833 268.019 120.806C268.149 120.779 268.285 120.805 268.397 120.878C268.508 120.951 268.586 121.066 268.613 121.196C268.64 121.327 268.614 121.463 268.541 121.575C268.255 122.021 267.948 122.452 267.641 122.864C267.463 123.102 267.276 123.335 267.09 123.563C267.043 123.619 266.984 123.665 266.918 123.696C266.852 123.727 266.779 123.744 266.706 123.744V123.747ZM87.4256 122.047C87.3616 122.047 87.2981 122.034 87.2391 122.009C86.4856 121.708 85.7427 121.405 85.0103 121.098C84.9493 121.073 84.8938 121.035 84.8471 120.989C84.8004 120.942 84.7633 120.886 84.738 120.825C84.7127 120.764 84.6996 120.698 84.6996 120.632C84.6996 120.566 84.7125 120.5 84.7378 120.439C84.763 120.378 84.8001 120.322 84.8467 120.276C84.8934 120.229 84.9488 120.192 85.0098 120.166C85.0708 120.141 85.1362 120.128 85.2022 120.128C85.2682 120.128 85.3336 120.141 85.3947 120.166C86.1232 120.471 86.8633 120.773 87.6149 121.078C87.7225 121.122 87.8116 121.202 87.8668 121.305C87.922 121.407 87.94 121.526 87.9177 121.64C87.8953 121.755 87.834 121.858 87.7443 121.932C87.6545 122.006 87.5419 122.047 87.4256 122.047V122.047ZM233.681 121.615C233.58 121.616 233.481 121.585 233.398 121.528C233.315 121.471 233.25 121.39 233.213 121.296C232.926 120.54 232.64 119.772 232.376 119.016C232.354 118.953 232.345 118.887 232.349 118.821C232.353 118.755 232.37 118.69 232.399 118.631C232.428 118.572 232.468 118.518 232.518 118.475C232.567 118.431 232.625 118.397 232.687 118.376C232.749 118.354 232.815 118.345 232.881 118.349C232.947 118.353 233.011 118.37 233.07 118.399C233.13 118.428 233.183 118.469 233.226 118.518C233.27 118.568 233.304 118.625 233.325 118.688C233.58 119.433 233.859 120.186 234.148 120.928C234.172 120.99 234.184 121.056 234.183 121.122C234.181 121.188 234.167 121.254 234.14 121.314C234.114 121.375 234.075 121.43 234.027 121.476C233.98 121.521 233.923 121.557 233.862 121.581C233.808 121.601 233.752 121.611 233.695 121.613L233.681 121.615ZM82.9823 120.209C82.9153 120.208 82.8492 120.194 82.7872 120.169L80.5727 119.22C80.4502 119.167 80.3538 119.067 80.3046 118.943C80.2553 118.819 80.2574 118.68 80.3103 118.557C80.3632 118.434 80.4625 118.337 80.5865 118.288C80.7105 118.239 80.849 118.241 80.9715 118.294C81.6943 118.608 82.4306 118.924 83.1802 119.24C83.2886 119.284 83.3781 119.365 83.4333 119.469C83.4885 119.572 83.5058 119.692 83.4823 119.807C83.4588 119.922 83.3959 120.025 83.3046 120.098C83.2133 120.172 83.0993 120.211 82.9823 120.209ZM269.35 119.726C269.268 119.726 269.186 119.707 269.112 119.668C268.995 119.605 268.908 119.498 268.869 119.37C268.83 119.243 268.844 119.105 268.906 118.987C269.27 118.302 269.611 117.583 269.927 116.85C269.98 116.727 270.079 116.63 270.203 116.581C270.327 116.532 270.466 116.534 270.588 116.587C270.711 116.64 270.807 116.74 270.856 116.864C270.906 116.988 270.903 117.127 270.851 117.25C270.524 118.006 270.171 118.751 269.792 119.459C269.75 119.539 269.687 119.607 269.609 119.654C269.531 119.702 269.441 119.726 269.35 119.726ZM78.5964 118.288C78.5272 118.288 78.4589 118.273 78.3956 118.245C77.6469 117.914 76.9154 117.586 76.1954 117.261C76.0747 117.206 75.9809 117.105 75.9343 116.98C75.8877 116.856 75.8921 116.718 75.9467 116.597C76.0013 116.475 76.1016 116.381 76.2256 116.333C76.3496 116.286 76.4873 116.29 76.6085 116.344C77.3257 116.669 78.0571 116.994 78.8 117.325C78.9053 117.371 78.9913 117.453 79.0437 117.556C79.096 117.658 79.1116 117.776 79.0878 117.889C79.0639 118.002 79.002 118.103 78.9126 118.176C78.8231 118.248 78.7115 118.288 78.5964 118.288V118.288ZM232.143 117.051C232.035 117.052 231.93 117.017 231.843 116.952C231.756 116.887 231.692 116.796 231.661 116.692C231.429 115.907 231.214 115.116 231.022 114.345C230.989 114.215 231.01 114.078 231.078 113.964C231.147 113.849 231.258 113.766 231.387 113.734C231.517 113.701 231.654 113.722 231.768 113.791C231.882 113.859 231.965 113.971 231.997 114.101C232.186 114.86 232.396 115.633 232.625 116.401C232.648 116.477 232.653 116.556 232.64 116.634C232.626 116.711 232.595 116.784 232.548 116.847C232.501 116.91 232.44 116.962 232.37 116.996C232.299 117.031 232.222 117.049 232.143 117.048V117.051ZM271.261 115.3C271.181 115.3 271.102 115.281 271.03 115.245C270.959 115.208 270.898 115.155 270.851 115.089C270.804 115.024 270.774 114.949 270.762 114.869C270.751 114.79 270.759 114.709 270.785 114.633C271.037 113.891 271.264 113.126 271.456 112.361C271.472 112.296 271.501 112.236 271.541 112.183C271.58 112.13 271.63 112.085 271.687 112.052C271.744 112.018 271.807 111.996 271.872 111.986C271.938 111.977 272.004 111.98 272.068 111.997C272.132 112.013 272.192 112.042 272.245 112.082C272.298 112.122 272.343 112.171 272.376 112.228C272.41 112.286 272.432 112.349 272.442 112.414C272.451 112.48 272.447 112.547 272.431 112.611C272.23 113.399 271.995 114.19 271.737 114.958C271.703 115.061 271.637 115.15 271.549 115.213C271.461 115.275 271.355 115.308 271.246 115.306L271.261 115.3ZM230.987 112.375C230.871 112.375 230.758 112.334 230.668 112.259C230.578 112.185 230.516 112.081 230.494 111.967C230.336 111.161 230.207 110.353 230.089 109.565C230.08 109.5 230.084 109.433 230.1 109.369C230.117 109.305 230.146 109.245 230.186 109.192C230.225 109.139 230.275 109.094 230.332 109.061C230.389 109.027 230.452 109.005 230.517 108.996C230.582 108.987 230.649 108.99 230.713 109.007C230.777 109.023 230.837 109.052 230.889 109.092C230.942 109.132 230.987 109.182 231.02 109.239C231.054 109.296 231.076 109.359 231.085 109.424C231.194 110.195 231.326 110.986 231.481 111.774C231.494 111.839 231.494 111.906 231.481 111.971C231.468 112.036 231.442 112.098 231.405 112.153C231.369 112.208 231.321 112.255 231.266 112.292C231.211 112.328 231.15 112.354 231.085 112.366C231.048 112.375 231.011 112.38 230.973 112.381L230.987 112.375ZM272.445 110.635C272.417 110.638 272.388 110.638 272.359 110.635C272.229 110.613 272.113 110.54 272.037 110.432C271.96 110.324 271.928 110.191 271.949 110.06C272.084 109.278 272.187 108.487 272.256 107.71C272.262 107.644 272.281 107.58 272.311 107.522C272.342 107.463 272.384 107.411 272.434 107.368C272.485 107.326 272.543 107.294 272.606 107.274C272.669 107.254 272.735 107.247 272.801 107.253C272.867 107.259 272.931 107.278 272.989 107.308C273.048 107.339 273.1 107.381 273.142 107.431C273.184 107.482 273.216 107.541 273.236 107.604C273.256 107.667 273.263 107.733 273.257 107.799C273.186 108.605 273.079 109.421 272.939 110.23C272.917 110.348 272.854 110.454 272.761 110.529C272.668 110.605 272.551 110.644 272.431 110.641L272.445 110.635ZM230.31 107.61C230.184 107.61 230.062 107.562 229.969 107.477C229.876 107.391 229.818 107.273 229.808 107.147C229.742 106.318 229.705 105.499 229.696 104.705C229.696 104.639 229.708 104.573 229.732 104.512C229.757 104.45 229.793 104.395 229.839 104.347C229.885 104.3 229.94 104.262 230.001 104.236C230.062 104.21 230.127 104.197 230.193 104.196C230.259 104.194 230.325 104.206 230.386 104.23C230.448 104.255 230.504 104.291 230.551 104.337C230.598 104.384 230.636 104.439 230.662 104.5C230.687 104.561 230.7 104.627 230.7 104.693C230.7 105.464 230.746 106.261 230.809 107.066C230.815 107.132 230.807 107.198 230.787 107.261C230.767 107.324 230.735 107.382 230.692 107.432C230.65 107.482 230.597 107.524 230.539 107.554C230.48 107.584 230.416 107.602 230.35 107.607L230.31 107.61ZM272.85 105.844C272.785 105.845 272.72 105.834 272.659 105.81C272.599 105.786 272.543 105.75 272.497 105.705C272.45 105.659 272.413 105.605 272.387 105.545C272.362 105.485 272.348 105.42 272.348 105.355V105.315C272.348 104.541 272.314 103.759 272.242 102.997C272.236 102.931 272.242 102.864 272.262 102.801C272.281 102.738 272.313 102.679 272.355 102.628C272.397 102.577 272.449 102.535 272.507 102.504C272.565 102.473 272.629 102.453 272.695 102.447C272.761 102.441 272.827 102.448 272.89 102.467C272.953 102.487 273.012 102.518 273.063 102.561C273.114 102.603 273.156 102.655 273.187 102.713C273.218 102.772 273.237 102.836 273.243 102.902C273.315 103.695 273.352 104.509 273.352 105.326C273.353 105.461 273.3 105.591 273.207 105.688C273.113 105.785 272.985 105.841 272.85 105.844ZM230.264 102.795H230.23C230.164 102.791 230.1 102.773 230.04 102.744C229.981 102.715 229.928 102.674 229.885 102.624C229.841 102.574 229.808 102.516 229.787 102.453C229.766 102.39 229.758 102.324 229.762 102.257C229.817 101.423 229.909 100.604 230.032 99.8186C230.042 99.7532 230.066 99.6906 230.1 99.6342C230.135 99.5778 230.18 99.5288 230.233 99.4899C230.287 99.4511 230.347 99.4231 230.411 99.4077C230.475 99.3923 230.542 99.3897 230.607 99.4001C230.672 99.4105 230.735 99.4337 230.791 99.4683C230.847 99.5029 230.896 99.5482 230.935 99.6018C230.974 99.6553 231.002 99.716 231.017 99.7803C231.032 99.8447 231.035 99.9114 231.025 99.9768C230.907 100.73 230.818 101.521 230.764 102.326C230.755 102.453 230.699 102.572 230.606 102.659C230.513 102.746 230.391 102.795 230.264 102.795V102.795ZM272.397 101.07C272.281 101.07 272.168 101.029 272.079 100.955C271.989 100.881 271.928 100.778 271.906 100.664C271.755 99.8944 271.563 99.1331 271.332 98.3835C271.307 98.3192 271.296 98.2505 271.298 98.1815C271.3 98.1125 271.317 98.0448 271.347 97.9825C271.376 97.9202 271.418 97.8647 271.47 97.8194C271.522 97.7741 271.583 97.7401 271.649 97.7193C271.714 97.6985 271.784 97.6915 271.852 97.6987C271.92 97.7059 271.987 97.7272 272.047 97.7612C272.107 97.7951 272.159 97.8411 272.2 97.8962C272.242 97.9513 272.272 98.0144 272.288 98.0815C272.536 98.8649 272.739 99.6619 272.896 100.469C272.922 100.599 272.895 100.735 272.822 100.846C272.748 100.957 272.633 101.035 272.503 101.061C272.467 101.062 272.432 101.06 272.397 101.055V101.07ZM231.027 98.0441C230.983 98.0438 230.939 98.0381 230.895 98.0269C230.767 97.9918 230.659 97.9074 230.592 97.7921C230.526 97.6768 230.508 97.5399 230.543 97.4114C230.754 96.6146 231.014 95.8318 231.323 95.0675C231.348 95.0061 231.384 94.9503 231.431 94.9031C231.477 94.8559 231.532 94.8184 231.593 94.7926C231.654 94.7669 231.72 94.7534 231.786 94.7529C231.852 94.7524 231.917 94.765 231.978 94.79C232.04 94.8149 232.095 94.8517 232.142 94.8982C232.189 94.9447 232.227 95 232.252 95.0611C232.278 95.1221 232.292 95.1876 232.292 95.2538C232.293 95.3201 232.28 95.3857 232.255 95.4471C231.962 96.173 231.714 96.9164 231.512 97.6731C231.483 97.7797 231.42 97.8738 231.332 97.9409C231.245 98.0079 231.138 98.0442 231.027 98.0441V98.0441ZM270.948 96.4738C270.852 96.4742 270.758 96.4474 270.677 96.3965C270.596 96.3456 270.531 96.2727 270.489 96.1862C270.17 95.4732 269.804 94.7815 269.396 94.1156C269.327 94.0011 269.305 93.8637 269.337 93.7334C269.368 93.6032 269.45 93.4908 269.564 93.421C269.678 93.3512 269.815 93.3297 269.945 93.3613C270.075 93.3928 270.187 93.4748 270.257 93.5893C270.685 94.2906 271.069 95.0187 271.404 95.7692C271.432 95.8295 271.447 95.8945 271.449 95.9607C271.451 96.0268 271.441 96.0928 271.417 96.1547C271.394 96.2167 271.359 96.2735 271.314 96.3218C271.269 96.3702 271.215 96.4091 271.155 96.4365C271.089 96.464 271.019 96.4767 270.948 96.4738V96.4738ZM232.843 93.5979C232.755 93.5988 232.668 93.576 232.591 93.5317C232.475 93.4644 232.391 93.354 232.357 93.2246C232.322 93.0953 232.341 92.9575 232.407 92.8415C232.824 92.1257 233.294 91.4422 233.813 90.7967C233.854 90.7453 233.906 90.7027 233.964 90.6712C234.022 90.6397 234.086 90.62 234.151 90.6132C234.217 90.6064 234.283 90.6126 234.346 90.6315C234.41 90.6504 234.469 90.6816 234.52 90.7234C234.571 90.7651 234.614 90.8165 234.645 90.8747C234.676 90.933 234.696 90.9968 234.703 91.0626C234.71 91.1285 234.703 91.195 234.685 91.2584C234.666 91.3218 234.635 91.3809 234.593 91.4323C234.105 92.0357 233.665 92.6761 233.276 93.3477C233.232 93.4239 233.169 93.4871 233.093 93.5311C233.017 93.575 232.931 93.598 232.843 93.5979ZM268.441 92.3785C268.366 92.3788 268.292 92.3622 268.225 92.3298C268.157 92.2975 268.098 92.2502 268.051 92.1915C267.687 91.7371 267.294 91.2942 266.883 90.8715C266.749 90.7334 266.597 90.5839 266.47 90.4631C266.376 90.3683 266.324 90.2401 266.324 90.1065C266.324 89.9729 266.376 89.8447 266.47 89.7498C266.516 89.702 266.57 89.6637 266.631 89.6371C266.691 89.6104 266.756 89.596 266.822 89.5947C266.888 89.5934 266.953 89.6051 267.014 89.6293C267.076 89.6534 267.132 89.6895 267.179 89.7355C267.325 89.8764 267.466 90.0231 267.615 90.1697C268.045 90.6126 268.458 91.0814 268.843 91.5588C268.902 91.6327 268.94 91.722 268.951 91.8163C268.962 91.9106 268.946 92.0062 268.905 92.0919C268.864 92.1777 268.8 92.2501 268.72 92.3008C268.64 92.3515 268.547 92.3784 268.453 92.3785H268.441ZM235.864 89.8793C235.762 89.8792 235.662 89.8482 235.579 89.7901C235.495 89.7321 235.431 89.6499 235.394 89.5544C235.358 89.4589 235.352 89.3546 235.376 89.2555C235.401 89.1563 235.455 89.0669 235.531 88.9992C236.149 88.451 236.804 87.9474 237.493 87.4922C237.548 87.4558 237.61 87.4305 237.674 87.418C237.739 87.4054 237.806 87.4057 237.87 87.419C237.935 87.4322 237.996 87.458 238.051 87.495C238.105 87.532 238.152 87.5794 238.189 87.6346C238.225 87.6897 238.25 87.7515 238.263 87.8164C238.275 87.8813 238.275 87.948 238.262 88.0128C238.248 88.0775 238.223 88.1391 238.186 88.1938C238.149 88.2486 238.102 88.2955 238.047 88.332C237.398 88.7624 236.78 89.2371 236.196 89.7527C236.105 89.8354 235.987 89.8806 235.864 89.8793V89.8793ZM264.99 89.0424C264.881 89.0434 264.775 89.008 264.689 88.9417C264.063 88.473 263.41 88.0418 262.733 87.6504C262.667 87.6223 262.609 87.5807 262.56 87.5281C262.512 87.4756 262.476 87.4134 262.454 87.3456C262.431 87.2779 262.423 87.2062 262.431 87.1352C262.438 87.0642 262.461 86.9957 262.497 86.934C262.532 86.8724 262.581 86.8191 262.639 86.7777C262.697 86.7363 262.763 86.7077 262.833 86.6939C262.902 86.6801 262.974 86.6812 263.044 86.6974C263.113 86.7136 263.178 86.7443 263.235 86.7876C263.947 87.1981 264.634 87.6514 265.291 88.1451C265.375 88.2077 265.437 88.2948 265.469 88.3942C265.5 88.4937 265.501 88.6006 265.469 88.7002C265.437 88.7997 265.376 88.887 265.293 88.9499C265.209 89.0127 265.109 89.0481 265.005 89.051L264.99 89.0424ZM239.854 87.2161C239.759 87.2162 239.667 87.1892 239.587 87.1382C239.507 87.0873 239.443 87.0145 239.403 86.9285C239.374 86.8693 239.356 86.8047 239.352 86.7386C239.347 86.6726 239.356 86.6062 239.377 86.5434C239.398 86.4806 239.431 86.4226 239.474 86.3727C239.518 86.3228 239.571 86.282 239.63 86.2527C240.364 85.8885 241.117 85.5631 241.885 85.2777C242.01 85.2316 242.148 85.2372 242.269 85.2933C242.39 85.3493 242.484 85.4514 242.53 85.5768C242.576 85.7023 242.571 85.841 242.515 85.9623C242.459 86.0837 242.357 86.1778 242.232 86.2239C241.498 86.496 240.779 86.807 240.077 87.1557C240.008 87.1925 239.932 87.2131 239.854 87.2161V87.2161ZM260.84 86.6409C260.77 86.6407 260.702 86.626 260.639 86.5978C259.92 86.2861 259.186 86.0125 258.439 85.7781C258.37 85.7641 258.306 85.7359 258.249 85.6955C258.192 85.655 258.145 85.6032 258.109 85.5433C258.073 85.4833 258.05 85.4166 258.042 85.3473C258.033 85.278 258.039 85.2077 258.059 85.1408C258.079 85.0739 258.113 85.012 258.158 84.9588C258.203 84.9057 258.259 84.8625 258.321 84.8321C258.384 84.8017 258.452 84.7847 258.522 84.7822C258.591 84.7797 258.661 84.7918 258.725 84.8176C259.505 85.0635 260.271 85.3515 261.02 85.6804C261.127 85.7259 261.214 85.8069 261.268 85.9097C261.322 86.0126 261.339 86.1309 261.315 86.2446C261.292 86.3584 261.23 86.4605 261.14 86.5338C261.05 86.6071 260.938 86.647 260.822 86.6467L260.84 86.6409ZM244.352 85.5423C244.23 85.542 244.112 85.4974 244.021 85.4169C243.93 85.3363 243.871 85.2252 243.855 85.1043C243.839 84.9834 243.868 84.8608 243.935 84.7594C244.003 84.658 244.105 84.5846 244.222 84.553C245.003 84.3459 245.809 84.1762 246.618 84.0411C246.684 84.0271 246.752 84.0268 246.819 84.0401C246.885 84.0533 246.948 84.08 247.004 84.1183C247.06 84.1567 247.108 84.206 247.144 84.2632C247.18 84.3205 247.205 84.3846 247.216 84.4516C247.227 84.5186 247.224 84.5872 247.208 84.6531C247.192 84.7191 247.163 84.7811 247.122 84.8355C247.082 84.8898 247.031 84.9354 246.972 84.9694C246.913 85.0033 246.848 85.0251 246.781 85.0333C246.004 85.1627 245.229 85.3209 244.486 85.5251C244.442 85.5361 244.397 85.5409 244.352 85.5394V85.5423ZM256.262 85.2001H256.158C255.401 85.0419 254.618 84.9125 253.832 84.8377C253.706 84.8146 253.594 84.7448 253.518 84.6423C253.442 84.5398 253.407 84.4122 253.421 84.2851C253.435 84.158 253.496 84.0408 253.593 83.9571C253.689 83.8735 253.813 83.8295 253.941 83.834C254.756 83.9231 255.57 84.0497 256.362 84.2136C256.482 84.2399 256.589 84.3097 256.662 84.4097C256.734 84.5098 256.767 84.6331 256.755 84.7561C256.742 84.8791 256.685 84.9933 256.594 85.0767C256.503 85.1602 256.385 85.2072 256.262 85.2087V85.2001ZM249.09 84.7543C248.963 84.7501 248.842 84.6976 248.752 84.6074C248.662 84.5172 248.61 84.3961 248.605 84.2686C248.601 84.141 248.645 84.0166 248.729 83.9204C248.812 83.8243 248.929 83.7635 249.056 83.7506C249.868 83.6902 250.691 83.6643 251.503 83.6787C251.636 83.6787 251.763 83.7317 251.858 83.8261C251.952 83.9205 252.005 84.0485 252.005 84.182C252.005 84.3155 251.952 84.4435 251.858 84.5379C251.763 84.6323 251.636 84.6853 251.503 84.6853C250.722 84.6853 249.928 84.6853 249.148 84.7543H249.09Z" fill="url(#paint17_linear_104_2008)"/>
<path d="M319.382 142.587C319.279 142.588 319.178 142.556 319.093 142.496C319.008 142.437 318.944 142.353 318.909 142.255C318.873 142.157 318.869 142.051 318.896 141.951C318.924 141.851 318.981 141.762 319.061 141.696C319.383 141.425 319.684 141.167 319.968 140.916C320.068 140.828 320.199 140.784 320.332 140.793C320.466 140.802 320.59 140.863 320.678 140.964C320.765 141.064 320.81 141.196 320.801 141.329C320.792 141.463 320.731 141.587 320.63 141.676C320.343 141.929 320.034 142.193 319.707 142.469C319.615 142.545 319.501 142.587 319.382 142.587V142.587Z" fill="url(#paint18_linear_104_2008)"/>
<path d="M28.7019 171.232C28.588 171.991 28.2522 172.699 27.737 173.267C27.2217 173.835 26.5502 174.237 25.8071 174.422C25.0641 174.608 24.2829 174.568 23.5624 174.308C22.8419 174.048 22.2143 173.58 21.759 172.963C21.3037 172.346 21.0411 171.607 21.0044 170.84C20.9678 170.074 21.1586 169.313 21.5529 168.655C21.9472 167.997 22.5272 167.471 23.2197 167.143C23.9121 166.816 24.6859 166.701 25.4432 166.814C25.9466 166.89 26.4303 167.064 26.8666 167.326C27.3029 167.589 27.6833 167.936 27.9859 168.346C28.2886 168.756 28.5076 169.222 28.6304 169.717C28.7533 170.213 28.7775 170.727 28.7019 171.232Z" fill="url(#paint19_linear_104_2008)"/>
<path d="M24.2989 172.929C24.2612 172.897 24.228 172.855 24.201 172.807L23.0739 170.751C23.0159 170.645 22.9905 170.512 23.0032 170.38C23.0159 170.249 23.0657 170.129 23.1416 170.049C23.2175 169.968 23.3133 169.933 23.4079 169.95C23.5026 169.968 23.5883 170.037 23.6462 170.143L24.5248 171.744L26.3524 169.203C26.3831 169.145 26.4224 169.097 26.4676 169.062C26.5128 169.027 26.5629 169.007 26.6144 169.001C26.6659 168.996 26.7176 169.006 26.766 169.031C26.8144 169.056 26.8584 169.096 26.8949 169.146C26.9314 169.197 26.9596 169.258 26.9776 169.326C26.9955 169.393 27.0028 169.465 26.999 169.537C26.9952 169.609 26.9803 169.678 26.9553 169.741C26.9304 169.804 26.896 169.859 26.8544 169.902L24.7382 172.855C24.7017 172.905 24.658 172.944 24.6099 172.969C24.5619 172.994 24.5106 173.004 24.4595 172.999C24.4027 172.994 24.3476 172.97 24.2989 172.929Z" fill="white"/>
<path d="M248.413 44.9769C248.253 46.0538 247.778 47.059 247.048 47.8653C246.318 48.6715 245.366 49.2426 244.313 49.5064C243.259 49.7701 242.151 49.7146 241.129 49.347C240.107 48.9793 239.216 48.3159 238.57 47.4407C237.924 46.5656 237.551 45.518 237.499 44.4304C237.447 43.3428 237.717 42.2641 238.277 41.3308C238.836 40.3975 239.659 39.6514 240.641 39.187C241.623 38.7226 242.721 38.5606 243.795 38.7217C245.235 38.9375 246.53 39.7177 247.396 40.8907C248.262 42.0637 248.628 43.5334 248.413 44.9769V44.9769Z" fill="url(#paint20_linear_104_2008)"/>
<path d="M242.105 46.5165C242.044 46.4789 241.99 46.4301 241.947 46.3727L240.12 43.9771C240.026 43.8539 239.985 43.6983 240.005 43.5446C240.026 43.3909 240.106 43.2516 240.229 43.1574C240.352 43.0632 240.507 43.0218 240.66 43.0423C240.814 43.0628 240.953 43.1435 241.046 43.2667L242.481 45.1332L245.441 42.1709C245.55 42.0615 245.698 42 245.853 42C246.007 42 246.155 42.0615 246.264 42.1709C246.373 42.2804 246.435 42.4289 246.435 42.5836C246.435 42.7384 246.373 42.8869 246.264 42.9963L242.822 46.4331C242.764 46.4924 242.693 46.5383 242.615 46.5676C242.538 46.5969 242.455 46.6089 242.372 46.6028C242.277 46.5947 242.186 46.5652 242.105 46.5165V46.5165Z" fill="white"/>
<path d="M331.88 48.6441C331.767 49.4034 331.432 50.1121 330.917 50.6804C330.402 51.2487 329.73 51.6511 328.987 51.8368C328.244 52.0225 327.463 51.9832 326.742 51.7237C326.021 51.4643 325.393 50.9964 324.938 50.3792C324.482 49.762 324.219 49.0233 324.182 48.2563C324.146 47.4894 324.336 46.7287 324.731 46.0705C325.125 45.4123 325.705 44.8861 326.398 44.5584C327.09 44.2307 327.864 44.1162 328.622 44.2295C329.637 44.3821 330.551 44.9329 331.162 45.7606C331.773 46.5884 332.031 47.6255 331.88 48.6441Z" fill="url(#paint21_linear_104_2008)"/>
<path d="M327.484 50.2475C327.443 50.2212 327.406 50.1881 327.375 50.1497L326.084 48.4558C326.018 48.3688 325.989 48.2591 326.004 48.1506C326.018 48.0422 326.075 47.9441 326.162 47.8777C326.249 47.8113 326.358 47.7822 326.466 47.7968C326.574 47.8114 326.672 47.8684 326.738 47.9553L327.742 49.2725L329.831 47.1817C329.865 47.1312 329.91 47.0889 329.962 47.0578C330.014 47.0267 330.073 47.0076 330.133 47.0019C330.194 46.9961 330.255 47.0038 330.312 47.0244C330.369 47.0451 330.421 47.0782 330.464 47.1213C330.507 47.1644 330.54 47.2166 330.561 47.274C330.582 47.3314 330.589 47.3926 330.584 47.4533C330.578 47.514 330.559 47.5727 330.528 47.6252C330.497 47.6777 330.455 47.7227 330.404 47.7569L327.983 50.1813C327.942 50.2226 327.892 50.2545 327.837 50.2749C327.782 50.2952 327.723 50.3035 327.665 50.2993C327.601 50.2979 327.539 50.2801 327.484 50.2475V50.2475Z" fill="white"/>
<path d="M303.961 210.543C303.545 213.707 300.949 215.864 298.167 215.392C295.385 214.92 293.463 211.99 293.879 208.841C294.295 205.692 296.888 203.52 299.673 203.989C302.458 204.458 304.377 207.394 303.961 210.543Z" fill="url(#paint22_linear_104_2008)"/>
<path d="M297.956 212.738C297.898 212.698 297.849 212.647 297.81 212.588L296.114 210.075C296.025 209.943 295.986 209.783 296.004 209.625C296.023 209.466 296.098 209.32 296.215 209.212C296.27 209.164 296.335 209.128 296.405 209.108C296.475 209.087 296.549 209.082 296.621 209.093C296.694 209.104 296.763 209.131 296.824 209.171C296.885 209.212 296.936 209.265 296.975 209.327L298.294 211.283L301.045 208.179C301.092 208.123 301.151 208.078 301.217 208.047C301.283 208.016 301.355 208 301.428 208C301.501 208 301.573 208.016 301.64 208.047C301.706 208.078 301.764 208.123 301.811 208.179C301.913 208.3 301.968 208.453 301.968 208.611C301.968 208.769 301.913 208.921 301.811 209.042L298.624 212.663C298.544 212.759 298.431 212.821 298.307 212.838C298.184 212.854 298.058 212.824 297.956 212.752V212.738Z" fill="white"/>
<path d="M113.328 31.4603C113.214 32.2195 112.878 32.9279 112.363 33.4957C111.847 34.0636 111.175 34.4654 110.432 34.6506C109.689 34.8357 108.908 34.7957 108.187 34.5357C107.467 34.2757 106.839 33.8074 106.384 33.1899C105.929 32.5724 105.667 31.8335 105.63 31.0666C105.594 30.2997 105.785 29.5392 106.18 28.8813C106.575 28.2233 107.155 27.6975 107.848 27.3703C108.541 27.0431 109.315 26.9291 110.072 27.0428C110.575 27.1184 111.059 27.2926 111.495 27.5555C111.931 27.8185 112.311 28.165 112.613 28.5752C112.915 28.9854 113.134 29.4514 113.257 29.9464C113.379 30.4415 113.404 30.9559 113.328 31.4603V31.4603Z" fill="url(#paint23_linear_104_2008)"/>
<path d="M108.485 32.2297C108.441 32.2032 108.403 32.1691 108.373 32.129L107.085 30.4408C107.018 30.3542 106.989 30.2448 107.004 30.1367C107.018 30.0286 107.074 29.9305 107.161 29.8642C107.247 29.7978 107.356 29.7686 107.464 29.7829C107.572 29.7972 107.67 29.8538 107.736 29.9404L108.74 31.2576L110.831 29.1668C110.866 29.1192 110.911 29.0798 110.963 29.0512C111.014 29.0226 111.071 29.0055 111.13 29.0011C111.189 28.9967 111.248 29.0051 111.304 29.0257C111.359 29.0463 111.409 29.0786 111.451 29.1205C111.493 29.1623 111.525 29.2127 111.545 29.2681C111.566 29.3236 111.574 29.3828 111.57 29.4418C111.565 29.5008 111.548 29.5582 111.52 29.61C111.491 29.6618 111.452 29.7068 111.405 29.7419L108.978 32.1664C108.937 32.2075 108.887 32.2395 108.833 32.2603C108.779 32.2811 108.72 32.2903 108.662 32.2872C108.599 32.2816 108.539 32.2619 108.485 32.2297V32.2297Z" fill="white"/>
<path d="M69.2652 231.363C68.9634 231.359 68.6753 231.236 68.4632 231.021C68.2511 230.805 68.1322 230.515 68.1322 230.212V222.208C68.1752 221.938 68.3129 221.692 68.5206 221.514C68.7283 221.337 68.9923 221.239 69.2652 221.239C69.5382 221.239 69.8022 221.337 70.0099 221.514C70.2175 221.692 70.3552 221.938 70.3983 222.208V230.227C70.3946 230.527 70.274 230.813 70.0623 231.026C69.8506 231.238 69.5646 231.359 69.2652 231.363V231.363Z" fill="url(#paint24_linear_104_2008)"/>
<path d="M73.2639 227.353H65.2666C64.9951 227.312 64.7473 227.175 64.5683 226.966C64.3893 226.757 64.2908 226.491 64.2908 226.216C64.2908 225.941 64.3893 225.674 64.5683 225.466C64.7473 225.257 64.9951 225.12 65.2666 225.078H73.2639C73.4272 225.054 73.5939 225.064 73.7527 225.11C73.9114 225.156 74.0585 225.236 74.1837 225.344C74.309 225.452 74.4094 225.585 74.4783 225.736C74.5472 225.887 74.5829 226.05 74.5829 226.216C74.5829 226.381 74.5472 226.545 74.4783 226.696C74.4094 226.846 74.309 226.98 74.1837 227.088C74.0585 227.196 73.9114 227.276 73.7527 227.321C73.5939 227.367 73.4272 227.378 73.2639 227.353Z" fill="url(#paint25_linear_104_2008)"/>
<path d="M37.6833 10.4456C37.379 10.4456 37.0871 10.3244 36.8719 10.1087C36.6567 9.89297 36.5359 9.60036 36.5359 9.29526V1.15917C36.5359 0.854072 36.6567 0.561468 36.8719 0.345729C37.0871 0.12999 37.379 0.00878906 37.6833 0.00878906C37.9876 0.00878906 38.2794 0.12999 38.4946 0.345729C38.7098 0.561468 38.8307 0.854072 38.8307 1.15917V9.29814C38.8299 9.60274 38.7086 9.89461 38.4935 10.1097C38.2784 10.3248 37.9871 10.4456 37.6833 10.4456Z" fill="url(#paint26_linear_104_2008)"/>
<path d="M41.7421 6.37596H33.6272C33.3229 6.37596 33.0311 6.25476 32.8159 6.03902C32.6007 5.82328 32.4798 5.53068 32.4798 5.22558C32.4798 4.92048 32.6007 4.62787 32.8159 4.41213C33.0311 4.1964 33.3229 4.0752 33.6272 4.0752H41.7421C42.0464 4.0752 42.3383 4.1964 42.5535 4.41213C42.7686 4.62787 42.8895 4.92048 42.8895 5.22558C42.8895 5.53068 42.7686 5.82328 42.5535 6.03902C42.3383 6.25476 42.0464 6.37596 41.7421 6.37596Z" fill="url(#paint27_linear_104_2008)"/>
<path d="M197.308 9.52795C197.098 9.52795 196.896 9.44402 196.747 9.29462C196.598 9.14523 196.514 8.9426 196.514 8.73131V3.11744C196.514 2.90616 196.598 2.70353 196.747 2.55413C196.896 2.40473 197.098 2.3208 197.308 2.3208C197.519 2.3208 197.721 2.40473 197.87 2.55413C198.019 2.70353 198.103 2.90616 198.103 3.11744V8.73131C198.103 8.9426 198.019 9.14523 197.87 9.29462C197.721 9.44402 197.519 9.52795 197.308 9.52795V9.52795Z" fill="url(#paint28_linear_104_2008)"/>
<path d="M200.108 6.72121H194.509C194.298 6.72121 194.096 6.63728 193.947 6.48788C193.798 6.33848 193.714 6.13585 193.714 5.92457C193.714 5.71329 193.798 5.51066 193.947 5.36126C194.096 5.21186 194.298 5.12793 194.509 5.12793H200.108C200.319 5.12793 200.521 5.21186 200.67 5.36126C200.819 5.51066 200.903 5.71329 200.903 5.92457C200.903 6.13585 200.819 6.33848 200.67 6.48788C200.521 6.63728 200.319 6.72121 200.108 6.72121V6.72121Z" fill="url(#paint29_linear_104_2008)"/>
<path d="M3.6028 87.2741C3.39207 87.2741 3.18995 87.1902 3.04094 87.0408C2.89193 86.8914 2.80823 86.6887 2.80823 86.4775V80.8665C2.80823 80.6552 2.89193 80.4526 3.04094 80.3032C3.18995 80.1538 3.39207 80.0698 3.6028 80.0698C3.81354 80.0698 4.01565 80.1538 4.16466 80.3032C4.31367 80.4526 4.39738 80.6552 4.39738 80.8665V86.4775C4.39738 86.5821 4.3768 86.6857 4.33687 86.7823C4.29694 86.879 4.23845 86.9668 4.16466 87.0408C4.09088 87.1147 4.00328 87.1734 3.90688 87.2135C3.81048 87.2535 3.70715 87.2741 3.6028 87.2741Z" fill="url(#paint30_linear_104_2008)"/>
<path d="M6.4025 84.4668H0.803219C0.601112 84.4546 0.411256 84.3656 0.272452 84.2178C0.133648 84.07 0.0563354 83.8746 0.0563354 83.6716C0.0563354 83.4686 0.133648 83.2733 0.272452 83.1255C0.411256 82.9777 0.601112 82.8886 0.803219 82.8764H6.4025C6.51067 82.8699 6.61898 82.8856 6.72086 82.9226C6.82274 82.9597 6.916 83.0172 6.99489 83.0917C7.07379 83.1661 7.13667 83.256 7.17964 83.3558C7.22261 83.4555 7.24477 83.563 7.24477 83.6716C7.24477 83.7803 7.22261 83.8878 7.17964 83.9875C7.13667 84.0873 7.07379 84.1771 6.99489 84.2516C6.916 84.3261 6.82274 84.3836 6.72086 84.4206C6.61898 84.4576 6.51067 84.4734 6.4025 84.4668V84.4668Z" fill="url(#paint31_linear_104_2008)"/>
<path d="M296.133 105.421C295.878 105.421 295.633 105.319 295.453 105.137C295.272 104.956 295.17 104.711 295.17 104.455V97.6332C295.183 97.3857 295.291 97.1527 295.47 96.9822C295.65 96.8118 295.888 96.7168 296.135 96.7168C296.382 96.7168 296.62 96.8118 296.799 96.9822C296.979 97.1527 297.087 97.3857 297.1 97.6332V104.455C297.099 104.712 296.997 104.957 296.816 105.138C296.635 105.32 296.389 105.421 296.133 105.421V105.421Z" fill="url(#paint32_linear_104_2008)"/>
<path d="M299.538 102.01H292.734C292.479 102.01 292.233 101.908 292.053 101.727C291.872 101.546 291.77 101.3 291.77 101.044C291.77 100.788 291.872 100.542 292.053 100.361C292.233 100.179 292.479 100.078 292.734 100.078H299.538C299.794 100.078 300.039 100.179 300.22 100.361C300.401 100.542 300.502 100.788 300.502 101.044C300.502 101.3 300.401 101.546 300.22 101.727C300.039 101.908 299.794 102.01 299.538 102.01V102.01Z" fill="url(#paint33_linear_104_2008)"/>
</g>
<defs>
<linearGradient id="paint0_linear_104_2008" x1="240.855" y1="68.4132" x2="120.425" y2="393.555" gradientUnits="userSpaceOnUse">
<stop stop-color="#FBB48F"/>
<stop offset="0.23" stop-color="#F09788"/>
<stop offset="0.75" stop-color="#DA5A78"/>
<stop offset="1" stop-color="#D14272"/>
</linearGradient>
<linearGradient id="paint1_linear_104_2008" x1="102.175" y1="90.9492" x2="272.278" y2="348.021" gradientUnits="userSpaceOnUse">
<stop stop-color="white"/>
<stop offset="0.56" stop-color="#DBE6F9"/>
<stop offset="1" stop-color="#C3D6F5"/>
</linearGradient>
<linearGradient id="paint2_linear_104_2008" x1="37692.2" y1="4204.5" x2="38167.9" y2="4204.5" gradientUnits="userSpaceOnUse">
<stop stop-color="white"/>
<stop offset="0.56" stop-color="#DBE6F9"/>
<stop offset="1" stop-color="#C3D6F5"/>
</linearGradient>
<linearGradient id="paint3_linear_104_2008" x1="105154" y1="15484.6" x2="108967" y2="15484.6" gradientUnits="userSpaceOnUse">
<stop stop-color="white"/>
<stop offset="0.56" stop-color="#DBE6F9"/>
<stop offset="1" stop-color="#C3D6F5"/>
</linearGradient>
<linearGradient id="paint4_linear_104_2008" x1="159.235" y1="180.51" x2="216.796" y2="265.853" gradientUnits="userSpaceOnUse">
<stop stop-color="#D52A33"/>
<stop offset="0.9999" stop-color="#D52A33"/>
<stop offset="1" stop-color="#D5C32A"/>
</linearGradient>
<linearGradient id="paint5_linear_104_2008" x1="121.813" y1="363.435" x2="121.813" y2="337.014" gradientUnits="userSpaceOnUse">
<stop stop-color="#AB5188"/>
<stop offset="0.2" stop-color="#93437D"/>
<stop offset="0.74" stop-color="#561F5F"/>
<stop offset="1" stop-color="#3E1154"/>
</linearGradient>
<linearGradient id="paint6_linear_104_2008" x1="124.294" y1="336.559" x2="148.894" y2="336.559" gradientUnits="userSpaceOnUse">
<stop stop-color="#767AA4"/>
<stop offset="0.55" stop-color="#5C6081"/>
<stop offset="1" stop-color="#4B4F69"/>
</linearGradient>
<linearGradient id="paint7_linear_104_2008" x1="31058.6" y1="4602.63" x2="31418.7" y2="4602.63" gradientUnits="userSpaceOnUse">
<stop stop-color="#595B68"/>
<stop offset="0.54" stop-color="#38404E"/>
<stop offset="1" stop-color="#202D3B"/>
</linearGradient>
<linearGradient id="paint8_linear_104_2008" x1="30305.1" y1="6913.34" x2="30640" y2="6913.34" gradientUnits="userSpaceOnUse">
<stop stop-color="#595B68"/>
<stop offset="0.54" stop-color="#38404E"/>
<stop offset="1" stop-color="#202D3B"/>
</linearGradient>
<linearGradient id="paint9_linear_104_2008" x1="44745.6" y1="13277.3" x2="45527.4" y2="13277.3" gradientUnits="userSpaceOnUse">
<stop stop-color="#595B68"/>
<stop offset="0.54" stop-color="#38404E"/>
<stop offset="1" stop-color="#202D3B"/>
</linearGradient>
<linearGradient id="paint10_linear_104_2008" x1="133.929" y1="276.21" x2="111.092" y2="332.811" gradientUnits="userSpaceOnUse">
<stop stop-color="#DBBAFD"/>
<stop offset="0.11" stop-color="#D0AEFD"/>
<stop offset="0.71" stop-color="#9371FC"/>
<stop offset="1" stop-color="#7C59FC"/>
</linearGradient>
<linearGradient id="paint11_linear_104_2008" x1="78434.4" y1="44834.4" x2="80857.3" y2="44834.4" gradientUnits="userSpaceOnUse">
<stop stop-color="#767AA4"/>
<stop offset="0.55" stop-color="#5C6081"/>
<stop offset="1" stop-color="#4B4F69"/>
</linearGradient>
<linearGradient id="paint12_linear_104_2008" x1="13776.6" y1="18001.5" x2="17025.9" y2="18001.5" gradientUnits="userSpaceOnUse">
<stop stop-color="#595B68"/>
<stop offset="0.54" stop-color="#38404E"/>
<stop offset="1" stop-color="#202D3B"/>
</linearGradient>
<linearGradient id="paint13_linear_104_2008" x1="5806.75" y1="8234.42" x2="9951.83" y2="8234.42" gradientUnits="userSpaceOnUse">
<stop stop-color="#D52A33"/>
<stop offset="0.9996" stop-color="#D52A33"/>
<stop offset="0.9997" stop-color="#9E3F71"/>
<stop offset="0.9998" stop-color="#93437D"/>
<stop offset="0.9999" stop-color="#A13E6D"/>
<stop offset="1" stop-color="#3E1154"/>
</linearGradient>
<linearGradient id="paint14_linear_104_2008" x1="4114.21" y1="8234.42" x2="6180.84" y2="8234.42" gradientUnits="userSpaceOnUse">
<stop stop-color="#D52A33"/>
<stop offset="0.9998" stop-color="#D52A33"/>
<stop offset="0.9999" stop-color="#D52A33"/>
<stop offset="1" stop-color="#3E1154"/>
</linearGradient>
<linearGradient id="paint15_linear_104_2008" x1="1619.53" y1="3093.25" x2="1792.14" y2="3093.25" gradientUnits="userSpaceOnUse">
<stop stop-color="#D52A33"/>
<stop offset="0.9998" stop-color="#D52A33"/>
<stop offset="0.9999" stop-color="#93437D"/>
<stop offset="1" stop-color="#3E1154"/>
</linearGradient>
<linearGradient id="paint16_linear_104_2008" x1="6103.2" y1="729.542" x2="6118.75" y2="729.542" gradientUnits="userSpaceOnUse">
<stop stop-color="#AB5188"/>
<stop offset="0.2" stop-color="#93437D"/>
<stop offset="0.74" stop-color="#561F5F"/>
<stop offset="1" stop-color="#3E1154"/>
</linearGradient>
<linearGradient id="paint17_linear_104_2008" x1="690109" y1="30053.3" x2="894399" y2="30053.3" gradientUnits="userSpaceOnUse">
<stop stop-color="#D52A33"/>
<stop offset="0.9998" stop-color="#561F5F"/>
<stop offset="0.9999" stop-color="#93437D"/>
<stop offset="1" stop-color="#D52A33"/>
</linearGradient>
<linearGradient id="paint18_linear_104_2008" x1="7430.87" y1="1027.25" x2="7443.75" y2="1027.25" gradientUnits="userSpaceOnUse">
<stop stop-color="#AB5188"/>
<stop offset="0.2" stop-color="#93437D"/>
<stop offset="0.74" stop-color="#561F5F"/>
<stop offset="1" stop-color="#3E1154"/>
</linearGradient>
<linearGradient id="paint19_linear_104_2008" x1="20645.5" y1="4782.05" x2="20854.7" y2="4782.05" gradientUnits="userSpaceOnUse">
<stop stop-color="#D52A33"/>
<stop offset="1" stop-color="#D52A33"/>
</linearGradient>
<linearGradient id="paint20_linear_104_2008" x1="37766" y1="1739.91" x2="38186.2" y2="1739.91" gradientUnits="userSpaceOnUse">
<stop stop-color="#D52A33"/>
<stop offset="1" stop-color="#D52A33"/>
</linearGradient>
<linearGradient id="paint21_linear_104_2008" x1="29132.8" y1="1349.58" x2="29341.9" y2="1349.58" gradientUnits="userSpaceOnUse">
<stop stop-color="#D52A33"/>
<stop offset="0.9998" stop-color="#D52A33"/>
<stop offset="0.9999" stop-color="#93437D"/>
<stop offset="1" stop-color="#D52A33"/>
</linearGradient>
<linearGradient id="paint22_linear_104_2008" x1="37142.6" y1="8622.97" x2="37505" y2="8622.97" gradientUnits="userSpaceOnUse">
<stop stop-color="#D52A33"/>
<stop offset="1" stop-color="#D52A33"/>
</linearGradient>
<linearGradient id="paint23_linear_104_2008" x1="23015.2" y1="868.504" x2="23224.3" y2="868.504" gradientUnits="userSpaceOnUse">
<stop stop-color="#D52A33"/>
<stop offset="0.9998" stop-color="#D52A33"/>
<stop offset="0.9999" stop-color="#93437D"/>
<stop offset="1" stop-color="#3E1154"/>
</linearGradient>
<linearGradient id="paint24_linear_104_2008" x1="6466.42" y1="8193.81" x2="6484.32" y2="8193.81" gradientUnits="userSpaceOnUse">
<stop stop-color="#FBB48F"/>
<stop offset="0.23" stop-color="#F09788"/>
<stop offset="0.75" stop-color="#DA5A78"/>
<stop offset="1" stop-color="#D14272"/>
</linearGradient>
<linearGradient id="paint25_linear_104_2008" x1="28980.7" y1="2037.07" x2="29349" y2="2037.07" gradientUnits="userSpaceOnUse">
<stop stop-color="#FBB48F"/>
<stop offset="0.23" stop-color="#F09788"/>
<stop offset="0.75" stop-color="#DA5A78"/>
<stop offset="1" stop-color="#D14272"/>
</linearGradient>
<linearGradient id="paint26_linear_104_2008" x1="6263.11" y1="199.666" x2="6281.52" y2="199.666" gradientUnits="userSpaceOnUse">
<stop stop-color="#FBB48F"/>
<stop offset="0.23" stop-color="#F09788"/>
<stop offset="0.75" stop-color="#DA5A78"/>
<stop offset="1" stop-color="#D14272"/>
</linearGradient>
<linearGradient id="paint27_linear_104_2008" x1="28130.6" y1="48.0889" x2="28508.7" y2="48.0889" gradientUnits="userSpaceOnUse">
<stop stop-color="#FBB48F"/>
<stop offset="0.23" stop-color="#F09788"/>
<stop offset="0.75" stop-color="#DA5A78"/>
<stop offset="1" stop-color="#D14272"/>
</linearGradient>
<linearGradient id="paint28_linear_104_2008" x1="5394.77" y1="157.779" x2="5403.58" y2="157.779" gradientUnits="userSpaceOnUse">
<stop stop-color="#FBB48F"/>
<stop offset="0.23" stop-color="#F09788"/>
<stop offset="0.75" stop-color="#DA5A78"/>
<stop offset="1" stop-color="#D14272"/>
</linearGradient>
<linearGradient id="paint29_linear_104_2008" x1="23637.3" y1="39.495" x2="23817.4" y2="39.495" gradientUnits="userSpaceOnUse">
<stop stop-color="#FBB48F"/>
<stop offset="0.23" stop-color="#F09788"/>
<stop offset="0.75" stop-color="#DA5A78"/>
<stop offset="1" stop-color="#D14272"/>
</linearGradient>
<linearGradient id="paint30_linear_104_2008" x1="4127.91" y1="2183.07" x2="4136.71" y2="2183.07" gradientUnits="userSpaceOnUse">
<stop stop-color="#FBB48F"/>
<stop offset="0.23" stop-color="#F09788"/>
<stop offset="0.75" stop-color="#DA5A78"/>
<stop offset="1" stop-color="#D14272"/>
</linearGradient>
<linearGradient id="paint31_linear_104_2008" x1="18589.6" y1="547.953" x2="18769.7" y2="547.953" gradientUnits="userSpaceOnUse">
<stop stop-color="#FBB48F"/>
<stop offset="0.23" stop-color="#F09788"/>
<stop offset="0.75" stop-color="#DA5A78"/>
<stop offset="1" stop-color="#D14272"/>
</linearGradient>
<linearGradient id="paint32_linear_104_2008" x1="7273.99" y1="3163.41" x2="7286.98" y2="3163.41" gradientUnits="userSpaceOnUse">
<stop stop-color="#FBB48F"/>
<stop offset="0.23" stop-color="#F09788"/>
<stop offset="0.75" stop-color="#DA5A78"/>
<stop offset="1" stop-color="#D14272"/>
</linearGradient>
<linearGradient id="paint33_linear_104_2008" x1="31753.6" y1="780.969" x2="32019.3" y2="780.969" gradientUnits="userSpaceOnUse">
<stop stop-color="#FBB48F"/>
<stop offset="0.23" stop-color="#F09788"/>
<stop offset="0.75" stop-color="#DA5A78"/>
<stop offset="1" stop-color="#D14272"/>
</linearGradient>
<clipPath id="clip0_104_2008">
<rect width="339" height="369" fill="white"/>
</clipPath>
</defs>
</svg>
