<svg width="38" height="38" viewBox="0 0 38 38" fill="none" xmlns="http://www.w3.org/2000/svg">
<ellipse cx="19" cy="19" rx="16" ry="15" fill="white"/>
<path d="M18.4345 0H19.4936C22.4757 0.0860937 25.4407 0.860195 28.0599 2.2941C31.845 4.34625 34.8962 7.71801 36.5453 11.6969C37.4404 13.8284 37.9124 16.1255 38 18.433V19.5641C37.8991 22.3911 37.1962 25.2017 35.8877 27.714C34.6156 30.1662 32.8084 32.3416 30.6197 34.0293C28.4117 35.7475 25.8163 36.9661 23.0805 37.5591C21.9034 37.8271 20.6974 37.9488 19.4928 38H18.5064C15.3618 37.9072 12.2387 37.047 9.51484 35.4654C6.22102 33.5639 3.51648 30.6583 1.86957 27.2286C0.713242 24.8425 0.0942578 22.2107 0 19.5641V18.4337C0.083125 16.2198 0.518789 14.014 1.34781 11.9566C2.81883 8.25684 5.49367 5.05133 8.8632 2.93164C11.7102 1.10883 15.0605 0.114297 18.4345 0ZM26.4389 11.7466C20.5126 14.034 14.5855 16.3192 8.65836 18.6029C8.36074 18.7284 8.05348 18.8761 7.84863 19.1343C7.72914 19.2791 7.6898 19.498 7.79742 19.6605C7.93621 19.8773 8.1841 19.9908 8.41789 20.0754C9.99578 20.5742 11.5796 21.0529 13.1545 21.5613C16.6295 19.3934 20.088 17.1995 23.5563 15.0211C23.819 14.8653 24.0625 14.6671 24.3541 14.5669C24.4907 14.532 24.6837 14.4986 24.7772 14.6352C24.7943 14.7718 24.6777 14.8608 24.5916 14.9462C21.6904 17.5654 18.7914 20.186 15.8902 22.8052C15.8041 22.8675 15.8338 22.9863 15.8175 23.0768C15.7151 24.6154 15.6023 26.1539 15.4984 27.6932C15.7989 27.6903 16.0958 27.5812 16.3073 27.3645C17.103 26.5993 17.9001 25.8348 18.692 25.0659C18.7514 24.9724 18.8323 25.0926 18.8916 25.1193C20.399 26.2311 21.9064 27.3437 23.4145 28.4547C23.7507 28.6848 24.2027 28.8563 24.6005 28.6833C24.9739 28.5 25.129 28.0762 25.2151 27.6962C26.2304 22.921 27.2427 18.145 28.2573 13.369C28.3538 12.9252 28.4681 12.4495 28.3048 12.0071C28.2039 11.7132 27.9337 11.4854 27.6227 11.4497C27.2019 11.3874 26.8212 11.613 26.4389 11.7466Z" fill="#D52A33"/>
</svg>
