<svg width="39" height="38" viewBox="0 0 39 38" fill="none" xmlns="http://www.w3.org/2000/svg">
<ellipse cx="19.5" cy="19.0491" rx="14.5" ry="15.5" fill="white"/>
<path d="M18.9957 0H20.0043C22.8935 0.083125 25.7682 0.775586 28.339 2.06922C32.3441 4.05086 35.6004 7.42484 37.3882 11.4393C38.3815 13.6444 38.9078 16.0364 39 18.4404V19.6242C38.8758 22.6523 38.041 25.6582 36.4978 28.2944C35.1305 30.6635 33.2346 32.7416 30.9806 34.344C28.761 35.9293 26.1932 37.0515 23.4975 37.597C22.3488 37.8382 21.1758 37.9525 20.0035 38H18.9973C16.0883 37.9132 13.196 37.2111 10.61 35.9048C6.98953 34.0916 3.97389 31.1533 2.129 27.6168C0.798281 25.1119 0.0868359 22.3094 0 19.4928V18.4396C0.0799805 16.3801 0.470742 14.3287 1.21418 12.3968C2.86863 8.03789 6.2301 4.32324 10.4584 2.17461C13.0795 0.81418 16.0304 0.0875781 18.9957 0ZM22.6962 10.4537C21.3426 10.7513 20.1619 11.7013 19.6074 12.9415C19.2083 13.8032 19.1214 14.7888 19.3317 15.7106C18.1297 15.6423 16.9345 15.4249 15.798 15.0352C13.5731 14.2886 11.5758 12.9207 10.092 11.1425C9.44988 12.1734 9.31277 13.4766 9.67611 14.6248C9.97014 15.5822 10.626 16.415 11.4669 16.9805C10.7585 16.9516 10.0623 16.7623 9.43922 16.4335C9.4377 17.2269 9.64488 18.0225 10.0631 18.7054C10.6938 19.7593 11.796 20.5245 13.0208 20.7709C12.3718 20.9609 11.6787 20.9579 11.0145 20.8495C11.2529 21.5628 11.6787 22.2174 12.2477 22.7243C13.0391 23.4472 14.1055 23.8517 15.1856 23.8918C13.3506 25.3227 10.9131 25.9639 8.58457 25.6997C10.7433 27.072 13.3522 27.7482 15.9245 27.648C18.234 27.5834 20.5405 26.9332 22.4707 25.6834C26.178 23.3129 28.3908 18.9532 28.2004 14.6515C29.0733 14.0348 29.832 13.2673 30.4345 12.3953C29.6202 12.7396 28.7564 12.9705 27.8751 13.0773C28.7793 12.5222 29.4945 11.6754 29.8266 10.6816C28.9331 11.1514 27.9855 11.5373 26.9839 11.7206C25.9137 10.6014 24.2249 10.0893 22.6962 10.4537Z" fill="#D52A33"/>
</svg>
