<svg width="96" height="96" viewBox="0 0 96 96" fill="none" xmlns="http://www.w3.org/2000/svg">
<path fill-rule="evenodd" clip-rule="evenodd" d="M48 0C43.1269 0 39.1765 3.95043 39.1765 8.82353V39.1765H8.82353C3.95043 39.1765 0 43.1269 0 48C0 52.8731 3.95043 56.8235 8.82353 56.8235H39.1765V87.1765C39.1765 92.0496 43.1269 96 48 96C52.8731 96 56.8235 92.0496 56.8235 87.1765V56.8235H87.1765C92.0496 56.8235 96 52.8731 96 48C96 43.1269 92.0496 39.1765 87.1765 39.1765H56.8235V8.82353C56.8235 3.95043 52.8731 0 48 0Z" fill="#D52A33"/>
</svg>
