<svg width="38" height="38" viewBox="0 0 38 38" fill="none" xmlns="http://www.w3.org/2000/svg">
<ellipse cx="18.5" cy="19" rx="15.5" ry="16" fill="white"/>
<path d="M18.6705 0H19.3243C22.2137 0.059375 25.0926 0.763711 27.6613 2.09445C31.7456 4.18223 35.0231 7.79742 36.6886 12.0724C37.5116 14.1483 37.9362 16.3719 38 18.6014V19.3288C37.9354 22.4571 37.1094 25.5706 35.5634 28.2937C34.1718 30.7741 32.2124 32.9323 29.8827 34.5629C26.8138 36.7323 23.0857 37.931 19.3303 38H18.7566C15.4412 37.9399 12.134 37.0374 9.29441 35.3155C9.04652 35.1619 8.79789 35.009 8.54777 34.8598C6.11637 35.6391 3.68422 36.4177 1.25207 37.1932C2.03805 34.8405 2.8307 32.4893 3.61742 30.1365C2.03285 27.9204 0.887656 25.3791 0.377031 22.6983C0.12543 21.5435 0.0452734 20.3612 0 19.1833V18.6764C0.0526953 16.4023 0.487617 14.1342 1.33223 12.0197C3.21813 7.2059 7.16211 3.24855 11.9722 1.35152C14.0971 0.49207 16.3816 0.0541797 18.6705 0ZM11.3132 8.73406C10.8137 8.81199 10.3157 8.99531 9.9416 9.34637C9.4191 9.85105 8.94633 10.4203 8.62496 11.0757C8.09059 12.1184 7.91617 13.3156 7.98371 14.4764C8.14625 16.1062 8.83945 17.6351 9.71598 19.0022C10.4879 20.1222 11.2679 21.2421 12.1637 22.2679C13.9427 24.3697 16.0468 26.2348 18.4923 27.5233C19.3592 27.9753 20.2736 28.3219 21.1843 28.6729C22.3807 29.0937 23.5964 29.5168 24.8685 29.62C26.1369 29.7172 27.3941 29.2815 28.4547 28.6076C29.1375 28.1608 29.7862 27.5745 30.0682 26.7878C30.3102 26.0248 30.5136 25.224 30.4356 24.418C30.4312 24.1152 30.1469 23.9534 29.9094 23.8346C28.6759 23.2312 27.4498 22.613 26.2037 22.0363C25.7762 21.8619 25.3412 21.5917 24.8603 21.6793C24.4796 21.7557 24.2324 22.0816 24.0179 22.3777C23.603 22.9744 23.1711 23.5607 22.6961 24.1107C22.3792 24.4506 21.8582 24.5174 21.4344 24.363C19.2568 23.5578 17.3108 22.1736 15.767 20.4473C15.3455 19.9255 14.9009 19.4201 14.5305 18.859C14.2366 18.43 13.9227 18.0062 13.7112 17.529C13.5568 17.1074 13.8893 16.7393 14.1505 16.4513C14.6159 15.9014 15.1837 15.4145 15.488 14.748C15.6119 14.4882 15.5741 14.1847 15.4664 13.9264C14.8935 12.5459 14.3183 11.1662 13.7446 9.78574C13.6303 9.53488 13.5197 9.27809 13.3601 9.05246C13.1931 8.82016 12.8948 8.73777 12.6231 8.72145C12.1875 8.69473 11.7473 8.67395 11.3132 8.73406Z" fill="#D52A33"/>
</svg>
