<svg width="38" height="38" viewBox="0 0 38 38" fill="none" xmlns="http://www.w3.org/2000/svg">
<ellipse cx="19.5" cy="20" rx="15.5" ry="13" fill="white"/>
<path d="M18.4441 0H19.4832C22.2322 0.0786719 24.9672 0.739219 27.4305 1.96754C31.2669 3.86902 34.4271 7.09902 36.2291 10.9836C37.3239 13.3156 37.908 15.8724 38 18.4441V19.5529C37.9043 22.2552 37.2608 24.9427 36.0599 27.3689C34.8101 29.8998 32.9984 32.1516 30.7822 33.9002C28.5371 35.6822 25.8845 36.9513 23.082 37.5584C21.9027 37.8271 20.6944 37.9495 19.4876 38H18.5139C15.6787 37.9146 12.8591 37.2148 10.3372 35.9115C7.03445 34.2171 4.24531 31.5348 2.43141 28.2959C0.917343 25.6396 0.103906 22.6063 0 19.5552V18.5094C0.103906 14.489 1.50961 10.5109 3.99816 7.34691C5.35563 5.5909 7.03074 4.08426 8.90996 2.90418C11.7496 1.0977 15.085 0.11207 18.4441 0ZM16.2784 10.7187C15.3024 10.7395 14.3264 10.7699 13.3505 10.8129C12.2142 10.882 11.0697 10.9168 9.94754 11.1246C8.83277 11.3206 7.89019 12.2209 7.61187 13.3134C7.41742 14.083 7.33727 14.8749 7.26898 15.6639C7.06711 18.119 7.08566 20.5927 7.33504 23.0442C7.39813 23.6097 7.47754 24.176 7.62301 24.7267C7.83973 25.535 8.42234 26.2319 9.1727 26.6C9.54973 26.793 9.97129 26.8709 10.3862 26.9332C11.3948 27.0817 12.4138 27.124 13.4306 27.1848C16.2977 27.311 19.17 27.3452 22.0393 27.2724C23.9741 27.213 25.9187 27.1871 27.8387 26.9132C28.716 26.8086 29.5391 26.3113 30.0126 25.5617C30.4275 24.9368 30.5076 24.1708 30.6175 23.4479C30.8728 21.2592 30.9225 19.0482 30.8171 16.8484C30.7629 15.8806 30.6969 14.9105 30.5284 13.9539C30.4468 13.5204 30.3577 13.0796 30.1469 12.6877C29.7469 11.9166 28.9936 11.3369 28.1408 11.1618C27.4053 11.0044 26.6534 10.9487 25.9046 10.8923C22.7013 10.692 19.4876 10.6548 16.2784 10.7187Z" fill="#D52A33"/>
<path d="M16.6346 15.4427C18.6831 16.6146 20.7256 17.7962 22.7703 18.9748C22.7696 18.9874 22.7681 19.0141 22.7681 19.0267C20.7241 20.2046 18.6816 21.3854 16.6346 22.5573C16.6324 20.186 16.6332 17.814 16.6346 15.4427Z" fill="#D52A33"/>
</svg>
